<?xml version="1.0" encoding="utf-8"?>
<svg xmlns="http://www.w3.org/2000/svg" xmlns:xlink="http://www.w3.org/1999/xlink" xml:space="preserve" width="924" height="924" viewBox="0 0 924 924"><rect width="924" height="924" fill="#ffffff" x="0" y="0"/><g fill="#000000">
<g transform="translate(308,56) scale(4.8066666666667)"><rect width="6" height="6"/></g>
<g transform="translate(336,56) scale(4.8066666666667)"><rect width="6" height="6"/></g>
<g transform="translate(364,56) scale(4.8066666666667)"><rect width="6" height="6"/></g>
<g transform="translate(392,56) scale(4.8066666666667)"><rect width="6" height="6"/></g>
<g transform="translate(476,56) scale(4.8066666666667)"><rect width="6" height="6"/></g>
<g transform="translate(504,56) scale(4.8066666666667)"><rect width="6" height="6"/></g>
<g transform="translate(532,56) scale(4.8066666666667)"><rect width="6" height="6"/></g>
<g transform="translate(560,56) scale(4.8066666666667)"><rect width="6" height="6"/></g>
<g transform="translate(588,56) scale(4.8066666666667)"><rect width="6" height="6"/></g>
<g transform="translate(308,84) scale(4.8066666666667)"><rect width="6" height="6"/></g>
<g transform="translate(532,84) scale(4.8066666666667)"><rect width="6" height="6"/></g>
<g transform="translate(616,84) scale(4.8066666666667)"><rect width="6" height="6"/></g>
<g transform="translate(280,112) scale(4.8066666666667)"><rect width="6" height="6"/></g>
<g transform="translate(308,112) scale(4.8066666666667)"><rect width="6" height="6"/></g>
<g transform="translate(448,112) scale(4.8066666666667)"><rect width="6" height="6"/></g>
<g transform="translate(504,112) scale(4.8066666666667)"><rect width="6" height="6"/></g>
<g transform="translate(616,112) scale(4.8066666666667)"><rect width="6" height="6"/></g>
<g transform="translate(280,140) scale(4.8066666666667)"><rect width="6" height="6"/></g>
<g transform="translate(308,140) scale(4.8066666666667)"><rect width="6" height="6"/></g>
<g transform="translate(364,140) scale(4.8066666666667)"><rect width="6" height="6"/></g>
<g transform="translate(392,140) scale(4.8066666666667)"><rect width="6" height="6"/></g>
<g transform="translate(532,140) scale(4.8066666666667)"><rect width="6" height="6"/></g>
<g transform="translate(588,140) scale(4.8066666666667)"><rect width="6" height="6"/></g>
<g transform="translate(280,168) scale(4.8066666666667)"><rect width="6" height="6"/></g>
<g transform="translate(308,168) scale(4.8066666666667)"><rect width="6" height="6"/></g>
<g transform="translate(336,168) scale(4.8066666666667)"><rect width="6" height="6"/></g>
<g transform="translate(420,168) scale(4.8066666666667)"><rect width="6" height="6"/></g>
<g transform="translate(448,168) scale(4.8066666666667)"><rect width="6" height="6"/></g>
<g transform="translate(476,168) scale(4.8066666666667)"><rect width="6" height="6"/></g>
<g transform="translate(560,168) scale(4.8066666666667)"><rect width="6" height="6"/></g>
<g transform="translate(588,168) scale(4.8066666666667)"><rect width="6" height="6"/></g>
<g transform="translate(616,168) scale(4.8066666666667)"><rect width="6" height="6"/></g>
<g transform="translate(280,196) scale(4.8066666666667)"><rect width="6" height="6"/></g>
<g transform="translate(420,196) scale(4.8066666666667)"><rect width="6" height="6"/></g>
<g transform="translate(448,196) scale(4.8066666666667)"><rect width="6" height="6"/></g>
<g transform="translate(476,196) scale(4.8066666666667)"><rect width="6" height="6"/></g>
<g transform="translate(504,196) scale(4.8066666666667)"><rect width="6" height="6"/></g>
<g transform="translate(560,196) scale(4.8066666666667)"><rect width="6" height="6"/></g>
<g transform="translate(616,196) scale(4.8066666666667)"><rect width="6" height="6"/></g>
<g transform="translate(280,224) scale(4.8066666666667)"><rect width="6" height="6"/></g>
<g transform="translate(336,224) scale(4.8066666666667)"><rect width="6" height="6"/></g>
<g transform="translate(392,224) scale(4.8066666666667)"><rect width="6" height="6"/></g>
<g transform="translate(448,224) scale(4.8066666666667)"><rect width="6" height="6"/></g>
<g transform="translate(504,224) scale(4.8066666666667)"><rect width="6" height="6"/></g>
<g transform="translate(560,224) scale(4.8066666666667)"><rect width="6" height="6"/></g>
<g transform="translate(616,224) scale(4.8066666666667)"><rect width="6" height="6"/></g>
<g transform="translate(280,252) scale(4.8066666666667)"><rect width="6" height="6"/></g>
<g transform="translate(308,252) scale(4.8066666666667)"><rect width="6" height="6"/></g>
<g transform="translate(336,252) scale(4.8066666666667)"><rect width="6" height="6"/></g>
<g transform="translate(364,252) scale(4.8066666666667)"><rect width="6" height="6"/></g>
<g transform="translate(392,252) scale(4.8066666666667)"><rect width="6" height="6"/></g>
<g transform="translate(420,252) scale(4.8066666666667)"><rect width="6" height="6"/></g>
<g transform="translate(588,252) scale(4.8066666666667)"><rect width="6" height="6"/></g>
<g transform="translate(616,252) scale(4.8066666666667)"><rect width="6" height="6"/></g>
<g transform="translate(56,280) scale(4.8066666666667)"><rect width="6" height="6"/></g>
<g transform="translate(112,280) scale(4.8066666666667)"><rect width="6" height="6"/></g>
<g transform="translate(140,280) scale(4.8066666666667)"><rect width="6" height="6"/></g>
<g transform="translate(168,280) scale(4.8066666666667)"><rect width="6" height="6"/></g>
<g transform="translate(196,280) scale(4.8066666666667)"><rect width="6" height="6"/></g>
<g transform="translate(224,280) scale(4.8066666666667)"><rect width="6" height="6"/></g>
<g transform="translate(308,280) scale(4.8066666666667)"><rect width="6" height="6"/></g>
<g transform="translate(364,280) scale(4.8066666666667)"><rect width="6" height="6"/></g>
<g transform="translate(392,280) scale(4.8066666666667)"><rect width="6" height="6"/></g>
<g transform="translate(448,280) scale(4.8066666666667)"><rect width="6" height="6"/></g>
<g transform="translate(476,280) scale(4.8066666666667)"><rect width="6" height="6"/></g>
<g transform="translate(504,280) scale(4.8066666666667)"><rect width="6" height="6"/></g>
<g transform="translate(532,280) scale(4.8066666666667)"><rect width="6" height="6"/></g>
<g transform="translate(588,280) scale(4.8066666666667)"><rect width="6" height="6"/></g>
<g transform="translate(672,280) scale(4.8066666666667)"><rect width="6" height="6"/></g>
<g transform="translate(700,280) scale(4.8066666666667)"><rect width="6" height="6"/></g>
<g transform="translate(728,280) scale(4.8066666666667)"><rect width="6" height="6"/></g>
<g transform="translate(756,280) scale(4.8066666666667)"><rect width="6" height="6"/></g>
<g transform="translate(784,280) scale(4.8066666666667)"><rect width="6" height="6"/></g>
<g transform="translate(140,308) scale(4.8066666666667)"><rect width="6" height="6"/></g>
<g transform="translate(196,308) scale(4.8066666666667)"><rect width="6" height="6"/></g>
<g transform="translate(252,308) scale(4.8066666666667)"><rect width="6" height="6"/></g>
<g transform="translate(280,308) scale(4.8066666666667)"><rect width="6" height="6"/></g>
<g transform="translate(308,308) scale(4.8066666666667)"><rect width="6" height="6"/></g>
<g transform="translate(476,308) scale(4.8066666666667)"><rect width="6" height="6"/></g>
<g transform="translate(588,308) scale(4.8066666666667)"><rect width="6" height="6"/></g>
<g transform="translate(616,308) scale(4.8066666666667)"><rect width="6" height="6"/></g>
<g transform="translate(644,308) scale(4.8066666666667)"><rect width="6" height="6"/></g>
<g transform="translate(672,308) scale(4.8066666666667)"><rect width="6" height="6"/></g>
<g transform="translate(728,308) scale(4.8066666666667)"><rect width="6" height="6"/></g>
<g transform="translate(840,308) scale(4.8066666666667)"><rect width="6" height="6"/></g>
<g transform="translate(84,336) scale(4.8066666666667)"><rect width="6" height="6"/></g>
<g transform="translate(112,336) scale(4.8066666666667)"><rect width="6" height="6"/></g>
<g transform="translate(168,336) scale(4.8066666666667)"><rect width="6" height="6"/></g>
<g transform="translate(196,336) scale(4.8066666666667)"><rect width="6" height="6"/></g>
<g transform="translate(224,336) scale(4.8066666666667)"><rect width="6" height="6"/></g>
<g transform="translate(252,336) scale(4.8066666666667)"><rect width="6" height="6"/></g>
<g transform="translate(364,336) scale(4.8066666666667)"><rect width="6" height="6"/></g>
<g transform="translate(560,336) scale(4.8066666666667)"><rect width="6" height="6"/></g>
<g transform="translate(616,336) scale(4.8066666666667)"><rect width="6" height="6"/></g>
<g transform="translate(672,336) scale(4.8066666666667)"><rect width="6" height="6"/></g>
<g transform="translate(700,336) scale(4.8066666666667)"><rect width="6" height="6"/></g>
<g transform="translate(112,364) scale(4.8066666666667)"><rect width="6" height="6"/></g>
<g transform="translate(140,364) scale(4.8066666666667)"><rect width="6" height="6"/></g>
<g transform="translate(168,364) scale(4.8066666666667)"><rect width="6" height="6"/></g>
<g transform="translate(252,364) scale(4.8066666666667)"><rect width="6" height="6"/></g>
<g transform="translate(280,364) scale(4.8066666666667)"><rect width="6" height="6"/></g>
<g transform="translate(364,364) scale(4.8066666666667)"><rect width="6" height="6"/></g>
<g transform="translate(448,364) scale(4.8066666666667)"><rect width="6" height="6"/></g>
<g transform="translate(476,364) scale(4.8066666666667)"><rect width="6" height="6"/></g>
<g transform="translate(504,364) scale(4.8066666666667)"><rect width="6" height="6"/></g>
<g transform="translate(560,364) scale(4.8066666666667)"><rect width="6" height="6"/></g>
<g transform="translate(588,364) scale(4.8066666666667)"><rect width="6" height="6"/></g>
<g transform="translate(644,364) scale(4.8066666666667)"><rect width="6" height="6"/></g>
<g transform="translate(672,364) scale(4.8066666666667)"><rect width="6" height="6"/></g>
<g transform="translate(728,364) scale(4.8066666666667)"><rect width="6" height="6"/></g>
<g transform="translate(756,364) scale(4.8066666666667)"><rect width="6" height="6"/></g>
<g transform="translate(812,364) scale(4.8066666666667)"><rect width="6" height="6"/></g>
<g transform="translate(168,392) scale(4.8066666666667)"><rect width="6" height="6"/></g>
<g transform="translate(196,392) scale(4.8066666666667)"><rect width="6" height="6"/></g>
<g transform="translate(224,392) scale(4.8066666666667)"><rect width="6" height="6"/></g>
<g transform="translate(252,392) scale(4.8066666666667)"><rect width="6" height="6"/></g>
<g transform="translate(280,392) scale(4.8066666666667)"><rect width="6" height="6"/></g>
<g transform="translate(308,392) scale(4.8066666666667)"><rect width="6" height="6"/></g>
<g transform="translate(336,392) scale(4.8066666666667)"><rect width="6" height="6"/></g>
<g transform="translate(476,392) scale(4.8066666666667)"><rect width="6" height="6"/></g>
<g transform="translate(532,392) scale(4.8066666666667)"><rect width="6" height="6"/></g>
<g transform="translate(700,392) scale(4.8066666666667)"><rect width="6" height="6"/></g>
<g transform="translate(756,392) scale(4.8066666666667)"><rect width="6" height="6"/></g>
<g transform="translate(784,392) scale(4.8066666666667)"><rect width="6" height="6"/></g>
<g transform="translate(140,420) scale(4.8066666666667)"><rect width="6" height="6"/></g>
<g transform="translate(308,420) scale(4.8066666666667)"><rect width="6" height="6"/></g>
<g transform="translate(336,420) scale(4.8066666666667)"><rect width="6" height="6"/></g>
<g transform="translate(420,420) scale(4.8066666666667)"><rect width="6" height="6"/></g>
<g transform="translate(448,420) scale(4.8066666666667)"><rect width="6" height="6"/></g>
<g transform="translate(476,420) scale(4.8066666666667)"><rect width="6" height="6"/></g>
<g transform="translate(588,420) scale(4.8066666666667)"><rect width="6" height="6"/></g>
<g transform="translate(616,420) scale(4.8066666666667)"><rect width="6" height="6"/></g>
<g transform="translate(644,420) scale(4.8066666666667)"><rect width="6" height="6"/></g>
<g transform="translate(672,420) scale(4.8066666666667)"><rect width="6" height="6"/></g>
<g transform="translate(700,420) scale(4.8066666666667)"><rect width="6" height="6"/></g>
<g transform="translate(728,420) scale(4.8066666666667)"><rect width="6" height="6"/></g>
<g transform="translate(840,420) scale(4.8066666666667)"><rect width="6" height="6"/></g>
<g transform="translate(56,448) scale(4.8066666666667)"><rect width="6" height="6"/></g>
<g transform="translate(140,448) scale(4.8066666666667)"><rect width="6" height="6"/></g>
<g transform="translate(168,448) scale(4.8066666666667)"><rect width="6" height="6"/></g>
<g transform="translate(196,448) scale(4.8066666666667)"><rect width="6" height="6"/></g>
<g transform="translate(224,448) scale(4.8066666666667)"><rect width="6" height="6"/></g>
<g transform="translate(280,448) scale(4.8066666666667)"><rect width="6" height="6"/></g>
<g transform="translate(364,448) scale(4.8066666666667)"><rect width="6" height="6"/></g>
<g transform="translate(420,448) scale(4.8066666666667)"><rect width="6" height="6"/></g>
<g transform="translate(448,448) scale(4.8066666666667)"><rect width="6" height="6"/></g>
<g transform="translate(504,448) scale(4.8066666666667)"><rect width="6" height="6"/></g>
<g transform="translate(560,448) scale(4.8066666666667)"><rect width="6" height="6"/></g>
<g transform="translate(644,448) scale(4.8066666666667)"><rect width="6" height="6"/></g>
<g transform="translate(728,448) scale(4.8066666666667)"><rect width="6" height="6"/></g>
<g transform="translate(756,448) scale(4.8066666666667)"><rect width="6" height="6"/></g>
<g transform="translate(784,448) scale(4.8066666666667)"><rect width="6" height="6"/></g>
<g transform="translate(56,476) scale(4.8066666666667)"><rect width="6" height="6"/></g>
<g transform="translate(84,476) scale(4.8066666666667)"><rect width="6" height="6"/></g>
<g transform="translate(112,476) scale(4.8066666666667)"><rect width="6" height="6"/></g>
<g transform="translate(140,476) scale(4.8066666666667)"><rect width="6" height="6"/></g>
<g transform="translate(168,476) scale(4.8066666666667)"><rect width="6" height="6"/></g>
<g transform="translate(280,476) scale(4.8066666666667)"><rect width="6" height="6"/></g>
<g transform="translate(364,476) scale(4.8066666666667)"><rect width="6" height="6"/></g>
<g transform="translate(420,476) scale(4.8066666666667)"><rect width="6" height="6"/></g>
<g transform="translate(560,476) scale(4.8066666666667)"><rect width="6" height="6"/></g>
<g transform="translate(588,476) scale(4.8066666666667)"><rect width="6" height="6"/></g>
<g transform="translate(616,476) scale(4.8066666666667)"><rect width="6" height="6"/></g>
<g transform="translate(728,476) scale(4.8066666666667)"><rect width="6" height="6"/></g>
<g transform="translate(812,476) scale(4.8066666666667)"><rect width="6" height="6"/></g>
<g transform="translate(56,504) scale(4.8066666666667)"><rect width="6" height="6"/></g>
<g transform="translate(112,504) scale(4.8066666666667)"><rect width="6" height="6"/></g>
<g transform="translate(196,504) scale(4.8066666666667)"><rect width="6" height="6"/></g>
<g transform="translate(224,504) scale(4.8066666666667)"><rect width="6" height="6"/></g>
<g transform="translate(308,504) scale(4.8066666666667)"><rect width="6" height="6"/></g>
<g transform="translate(364,504) scale(4.8066666666667)"><rect width="6" height="6"/></g>
<g transform="translate(392,504) scale(4.8066666666667)"><rect width="6" height="6"/></g>
<g transform="translate(448,504) scale(4.8066666666667)"><rect width="6" height="6"/></g>
<g transform="translate(476,504) scale(4.8066666666667)"><rect width="6" height="6"/></g>
<g transform="translate(532,504) scale(4.8066666666667)"><rect width="6" height="6"/></g>
<g transform="translate(560,504) scale(4.8066666666667)"><rect width="6" height="6"/></g>
<g transform="translate(588,504) scale(4.8066666666667)"><rect width="6" height="6"/></g>
<g transform="translate(700,504) scale(4.8066666666667)"><rect width="6" height="6"/></g>
<g transform="translate(756,504) scale(4.8066666666667)"><rect width="6" height="6"/></g>
<g transform="translate(784,504) scale(4.8066666666667)"><rect width="6" height="6"/></g>
<g transform="translate(56,532) scale(4.8066666666667)"><rect width="6" height="6"/></g>
<g transform="translate(84,532) scale(4.8066666666667)"><rect width="6" height="6"/></g>
<g transform="translate(112,532) scale(4.8066666666667)"><rect width="6" height="6"/></g>
<g transform="translate(196,532) scale(4.8066666666667)"><rect width="6" height="6"/></g>
<g transform="translate(252,532) scale(4.8066666666667)"><rect width="6" height="6"/></g>
<g transform="translate(308,532) scale(4.8066666666667)"><rect width="6" height="6"/></g>
<g transform="translate(392,532) scale(4.8066666666667)"><rect width="6" height="6"/></g>
<g transform="translate(504,532) scale(4.8066666666667)"><rect width="6" height="6"/></g>
<g transform="translate(532,532) scale(4.8066666666667)"><rect width="6" height="6"/></g>
<g transform="translate(560,532) scale(4.8066666666667)"><rect width="6" height="6"/></g>
<g transform="translate(588,532) scale(4.8066666666667)"><rect width="6" height="6"/></g>
<g transform="translate(672,532) scale(4.8066666666667)"><rect width="6" height="6"/></g>
<g transform="translate(700,532) scale(4.8066666666667)"><rect width="6" height="6"/></g>
<g transform="translate(728,532) scale(4.8066666666667)"><rect width="6" height="6"/></g>
<g transform="translate(784,532) scale(4.8066666666667)"><rect width="6" height="6"/></g>
<g transform="translate(840,532) scale(4.8066666666667)"><rect width="6" height="6"/></g>
<g transform="translate(56,560) scale(4.8066666666667)"><rect width="6" height="6"/></g>
<g transform="translate(112,560) scale(4.8066666666667)"><rect width="6" height="6"/></g>
<g transform="translate(140,560) scale(4.8066666666667)"><rect width="6" height="6"/></g>
<g transform="translate(168,560) scale(4.8066666666667)"><rect width="6" height="6"/></g>
<g transform="translate(224,560) scale(4.8066666666667)"><rect width="6" height="6"/></g>
<g transform="translate(252,560) scale(4.8066666666667)"><rect width="6" height="6"/></g>
<g transform="translate(308,560) scale(4.8066666666667)"><rect width="6" height="6"/></g>
<g transform="translate(336,560) scale(4.8066666666667)"><rect width="6" height="6"/></g>
<g transform="translate(476,560) scale(4.8066666666667)"><rect width="6" height="6"/></g>
<g transform="translate(504,560) scale(4.8066666666667)"><rect width="6" height="6"/></g>
<g transform="translate(532,560) scale(4.8066666666667)"><rect width="6" height="6"/></g>
<g transform="translate(616,560) scale(4.8066666666667)"><rect width="6" height="6"/></g>
<g transform="translate(644,560) scale(4.8066666666667)"><rect width="6" height="6"/></g>
<g transform="translate(728,560) scale(4.8066666666667)"><rect width="6" height="6"/></g>
<g transform="translate(784,560) scale(4.8066666666667)"><rect width="6" height="6"/></g>
<g transform="translate(56,588) scale(4.8066666666667)"><rect width="6" height="6"/></g>
<g transform="translate(112,588) scale(4.8066666666667)"><rect width="6" height="6"/></g>
<g transform="translate(140,588) scale(4.8066666666667)"><rect width="6" height="6"/></g>
<g transform="translate(252,588) scale(4.8066666666667)"><rect width="6" height="6"/></g>
<g transform="translate(336,588) scale(4.8066666666667)"><rect width="6" height="6"/></g>
<g transform="translate(364,588) scale(4.8066666666667)"><rect width="6" height="6"/></g>
<g transform="translate(448,588) scale(4.8066666666667)"><rect width="6" height="6"/></g>
<g transform="translate(504,588) scale(4.8066666666667)"><rect width="6" height="6"/></g>
<g transform="translate(616,588) scale(4.8066666666667)"><rect width="6" height="6"/></g>
<g transform="translate(644,588) scale(4.8066666666667)"><rect width="6" height="6"/></g>
<g transform="translate(728,588) scale(4.8066666666667)"><rect width="6" height="6"/></g>
<g transform="translate(812,588) scale(4.8066666666667)"><rect width="6" height="6"/></g>
<g transform="translate(56,616) scale(4.8066666666667)"><rect width="6" height="6"/></g>
<g transform="translate(112,616) scale(4.8066666666667)"><rect width="6" height="6"/></g>
<g transform="translate(140,616) scale(4.8066666666667)"><rect width="6" height="6"/></g>
<g transform="translate(196,616) scale(4.8066666666667)"><rect width="6" height="6"/></g>
<g transform="translate(224,616) scale(4.8066666666667)"><rect width="6" height="6"/></g>
<g transform="translate(280,616) scale(4.8066666666667)"><rect width="6" height="6"/></g>
<g transform="translate(308,616) scale(4.8066666666667)"><rect width="6" height="6"/></g>
<g transform="translate(364,616) scale(4.8066666666667)"><rect width="6" height="6"/></g>
<g transform="translate(532,616) scale(4.8066666666667)"><rect width="6" height="6"/></g>
<g transform="translate(616,616) scale(4.8066666666667)"><rect width="6" height="6"/></g>
<g transform="translate(644,616) scale(4.8066666666667)"><rect width="6" height="6"/></g>
<g transform="translate(672,616) scale(4.8066666666667)"><rect width="6" height="6"/></g>
<g transform="translate(700,616) scale(4.8066666666667)"><rect width="6" height="6"/></g>
<g transform="translate(728,616) scale(4.8066666666667)"><rect width="6" height="6"/></g>
<g transform="translate(784,616) scale(4.8066666666667)"><rect width="6" height="6"/></g>
<g transform="translate(812,616) scale(4.8066666666667)"><rect width="6" height="6"/></g>
<g transform="translate(840,616) scale(4.8066666666667)"><rect width="6" height="6"/></g>
<g transform="translate(280,644) scale(4.8066666666667)"><rect width="6" height="6"/></g>
<g transform="translate(308,644) scale(4.8066666666667)"><rect width="6" height="6"/></g>
<g transform="translate(336,644) scale(4.8066666666667)"><rect width="6" height="6"/></g>
<g transform="translate(364,644) scale(4.8066666666667)"><rect width="6" height="6"/></g>
<g transform="translate(392,644) scale(4.8066666666667)"><rect width="6" height="6"/></g>
<g transform="translate(420,644) scale(4.8066666666667)"><rect width="6" height="6"/></g>
<g transform="translate(448,644) scale(4.8066666666667)"><rect width="6" height="6"/></g>
<g transform="translate(476,644) scale(4.8066666666667)"><rect width="6" height="6"/></g>
<g transform="translate(532,644) scale(4.8066666666667)"><rect width="6" height="6"/></g>
<g transform="translate(560,644) scale(4.8066666666667)"><rect width="6" height="6"/></g>
<g transform="translate(616,644) scale(4.8066666666667)"><rect width="6" height="6"/></g>
<g transform="translate(728,644) scale(4.8066666666667)"><rect width="6" height="6"/></g>
<g transform="translate(756,644) scale(4.8066666666667)"><rect width="6" height="6"/></g>
<g transform="translate(784,644) scale(4.8066666666667)"><rect width="6" height="6"/></g>
<g transform="translate(812,644) scale(4.8066666666667)"><rect width="6" height="6"/></g>
<g transform="translate(840,644) scale(4.8066666666667)"><rect width="6" height="6"/></g>
<g transform="translate(308,672) scale(4.8066666666667)"><rect width="6" height="6"/></g>
<g transform="translate(364,672) scale(4.8066666666667)"><rect width="6" height="6"/></g>
<g transform="translate(392,672) scale(4.8066666666667)"><rect width="6" height="6"/></g>
<g transform="translate(420,672) scale(4.8066666666667)"><rect width="6" height="6"/></g>
<g transform="translate(448,672) scale(4.8066666666667)"><rect width="6" height="6"/></g>
<g transform="translate(560,672) scale(4.8066666666667)"><rect width="6" height="6"/></g>
<g transform="translate(588,672) scale(4.8066666666667)"><rect width="6" height="6"/></g>
<g transform="translate(616,672) scale(4.8066666666667)"><rect width="6" height="6"/></g>
<g transform="translate(672,672) scale(4.8066666666667)"><rect width="6" height="6"/></g>
<g transform="translate(728,672) scale(4.8066666666667)"><rect width="6" height="6"/></g>
<g transform="translate(756,672) scale(4.8066666666667)"><rect width="6" height="6"/></g>
<g transform="translate(784,672) scale(4.8066666666667)"><rect width="6" height="6"/></g>
<g transform="translate(280,700) scale(4.8066666666667)"><rect width="6" height="6"/></g>
<g transform="translate(336,700) scale(4.8066666666667)"><rect width="6" height="6"/></g>
<g transform="translate(420,700) scale(4.8066666666667)"><rect width="6" height="6"/></g>
<g transform="translate(588,700) scale(4.8066666666667)"><rect width="6" height="6"/></g>
<g transform="translate(616,700) scale(4.8066666666667)"><rect width="6" height="6"/></g>
<g transform="translate(728,700) scale(4.8066666666667)"><rect width="6" height="6"/></g>
<g transform="translate(280,728) scale(4.8066666666667)"><rect width="6" height="6"/></g>
<g transform="translate(308,728) scale(4.8066666666667)"><rect width="6" height="6"/></g>
<g transform="translate(336,728) scale(4.8066666666667)"><rect width="6" height="6"/></g>
<g transform="translate(364,728) scale(4.8066666666667)"><rect width="6" height="6"/></g>
<g transform="translate(448,728) scale(4.8066666666667)"><rect width="6" height="6"/></g>
<g transform="translate(532,728) scale(4.8066666666667)"><rect width="6" height="6"/></g>
<g transform="translate(616,728) scale(4.8066666666667)"><rect width="6" height="6"/></g>
<g transform="translate(644,728) scale(4.8066666666667)"><rect width="6" height="6"/></g>
<g transform="translate(672,728) scale(4.8066666666667)"><rect width="6" height="6"/></g>
<g transform="translate(700,728) scale(4.8066666666667)"><rect width="6" height="6"/></g>
<g transform="translate(728,728) scale(4.8066666666667)"><rect width="6" height="6"/></g>
<g transform="translate(784,728) scale(4.8066666666667)"><rect width="6" height="6"/></g>
<g transform="translate(840,728) scale(4.8066666666667)"><rect width="6" height="6"/></g>
<g transform="translate(280,756) scale(4.8066666666667)"><rect width="6" height="6"/></g>
<g transform="translate(336,756) scale(4.8066666666667)"><rect width="6" height="6"/></g>
<g transform="translate(420,756) scale(4.8066666666667)"><rect width="6" height="6"/></g>
<g transform="translate(560,756) scale(4.8066666666667)"><rect width="6" height="6"/></g>
<g transform="translate(700,756) scale(4.8066666666667)"><rect width="6" height="6"/></g>
<g transform="translate(756,756) scale(4.8066666666667)"><rect width="6" height="6"/></g>
<g transform="translate(784,756) scale(4.8066666666667)"><rect width="6" height="6"/></g>
<g transform="translate(280,784) scale(4.8066666666667)"><rect width="6" height="6"/></g>
<g transform="translate(308,784) scale(4.8066666666667)"><rect width="6" height="6"/></g>
<g transform="translate(420,784) scale(4.8066666666667)"><rect width="6" height="6"/></g>
<g transform="translate(476,784) scale(4.8066666666667)"><rect width="6" height="6"/></g>
<g transform="translate(588,784) scale(4.8066666666667)"><rect width="6" height="6"/></g>
<g transform="translate(616,784) scale(4.8066666666667)"><rect width="6" height="6"/></g>
<g transform="translate(672,784) scale(4.8066666666667)"><rect width="6" height="6"/></g>
<g transform="translate(700,784) scale(4.8066666666667)"><rect width="6" height="6"/></g>
<g transform="translate(728,784) scale(4.8066666666667)"><rect width="6" height="6"/></g>
<g transform="translate(756,784) scale(4.8066666666667)"><rect width="6" height="6"/></g>
<g transform="translate(784,784) scale(4.8066666666667)"><rect width="6" height="6"/></g>
<g transform="translate(812,784) scale(4.8066666666667)"><rect width="6" height="6"/></g>
<g transform="translate(308,812) scale(4.8066666666667)"><rect width="6" height="6"/></g>
<g transform="translate(336,812) scale(4.8066666666667)"><rect width="6" height="6"/></g>
<g transform="translate(392,812) scale(4.8066666666667)"><rect width="6" height="6"/></g>
<g transform="translate(420,812) scale(4.8066666666667)"><rect width="6" height="6"/></g>
<g transform="translate(476,812) scale(4.8066666666667)"><rect width="6" height="6"/></g>
<g transform="translate(560,812) scale(4.8066666666667)"><rect width="6" height="6"/></g>
<g transform="translate(616,812) scale(4.8066666666667)"><rect width="6" height="6"/></g>
<g transform="translate(644,812) scale(4.8066666666667)"><rect width="6" height="6"/></g>
<g transform="translate(700,812) scale(4.8066666666667)"><rect width="6" height="6"/></g>
<g transform="translate(728,812) scale(4.8066666666667)"><rect width="6" height="6"/></g>
<g transform="translate(756,812) scale(4.8066666666667)"><rect width="6" height="6"/></g>
<g transform="translate(812,812) scale(4.8066666666667)"><rect width="6" height="6"/></g>
<g transform="translate(280,840) scale(4.8066666666667)"><rect width="6" height="6"/></g>
<g transform="translate(336,840) scale(4.8066666666667)"><rect width="6" height="6"/></g>
<g transform="translate(364,840) scale(4.8066666666667)"><rect width="6" height="6"/></g>
<g transform="translate(420,840) scale(4.8066666666667)"><rect width="6" height="6"/></g>
<g transform="translate(448,840) scale(4.8066666666667)"><rect width="6" height="6"/></g>
<g transform="translate(476,840) scale(4.8066666666667)"><rect width="6" height="6"/></g>
<g transform="translate(504,840) scale(4.8066666666667)"><rect width="6" height="6"/></g>
<g transform="translate(560,840) scale(4.8066666666667)"><rect width="6" height="6"/></g>
<g transform="translate(588,840) scale(4.8066666666667)"><rect width="6" height="6"/></g>
<g transform="translate(644,840) scale(4.8066666666667)"><rect width="6" height="6"/></g>
<g transform="translate(728,840) scale(4.8066666666667)"><rect width="6" height="6"/></g>
<g transform="translate(784,840) scale(4.8066666666667)"><rect width="6" height="6"/></g>
<g transform="translate(56,56)"><g transform="scale(14)"><path d="M0,0v14h14V0H0z M12,12H2V2h10V12z"/></g></g>
<g transform="translate(672,56)"><g transform="scale(14)"><path d="M0,0v14h14V0H0z M12,12H2V2h10V12z"/></g></g>
<g transform="translate(56,672)"><g transform="scale(14)"><path d="M0,0v14h14V0H0z M12,12H2V2h10V12z"/></g></g>
<g transform="translate(112,112)"><g transform="scale(14)"><rect width="6" height="6"/></g></g>
<g transform="translate(728,112)"><g transform="scale(14)"><rect width="6" height="6"/></g></g>
<g transform="translate(112,728)"><g transform="scale(14)"><rect width="6" height="6"/></g></g>
</g></svg>
