<?xml version="1.0" encoding="UTF-8" standalone="no"?>
<!DOCTYPE svg PUBLIC "-//W3C//DTD SVG 1.1//EN" "http://www.w3.org/Graphics/SVG/1.1/DTD/svg11.dtd">
<svg width="100%" height="100%" viewBox="0 0 924 924" version="1.1" xmlns="http://www.w3.org/2000/svg" xmlns:xlink="http://www.w3.org/1999/xlink" xml:space="preserve" xmlns:serif="http://www.serif.com/" style="fill-rule:evenodd;clip-rule:evenodd;stroke-linejoin:round;stroke-miterlimit:2;">
    <rect x="0" y="0" width="924" height="924" style="fill:white;"/>
    <g transform="matrix(0.212308,0,0,0.224521,55.8137,660.505)">
        <path d="M923.608,51.199L924.066,924.169L0.878,924.169L923.608,51.199Z" style="fill:rgb(247,106,41);"/>
    </g>
    <g transform="matrix(0.212308,0,0,0.224521,55.8137,44.5048)">
        <path d="M923.608,51.199L924.066,924.169L0.878,924.169L923.608,51.199Z" style="fill:rgb(247,106,41);"/>
    </g>
    <g transform="matrix(0.212308,0,0,0.224521,671.814,44.5048)">
        <path d="M923.608,51.199L924.066,924.169L0.878,924.169L923.608,51.199Z" style="fill:rgb(247,106,41);"/>
    </g>
    <g>
        <g transform="matrix(4.80667,0,0,4.80667,308,56)">
            <rect x="0" y="0" width="6" height="6"/>
        </g>
        <g transform="matrix(4.80667,0,0,4.80667,336,56)">
            <rect x="0" y="0" width="6" height="6"/>
        </g>
        <g transform="matrix(4.80667,0,0,4.80667,364,56)">
            <rect x="0" y="0" width="6" height="6"/>
        </g>
        <g transform="matrix(4.80667,0,0,4.80667,392,56)">
            <rect x="0" y="0" width="6" height="6"/>
        </g>
        <g transform="matrix(4.80667,0,0,4.80667,476,56)">
            <rect x="0" y="0" width="6" height="6"/>
        </g>
        <g transform="matrix(4.80667,0,0,4.80667,504,56)">
            <rect x="0" y="0" width="6" height="6"/>
        </g>
        <g transform="matrix(4.80667,0,0,4.80667,532,56)">
            <rect x="0" y="0" width="6" height="6"/>
        </g>
        <g transform="matrix(4.80667,0,0,4.80667,560,56)">
            <rect x="0" y="0" width="6" height="6"/>
        </g>
        <g transform="matrix(4.80667,0,0,4.80667,588,56)">
            <rect x="0" y="0" width="6" height="6"/>
        </g>
        <g transform="matrix(4.80667,0,0,4.80667,308,84)">
            <rect x="0" y="0" width="6" height="6"/>
        </g>
        <g transform="matrix(4.80667,0,0,4.80667,532,84)">
            <rect x="0" y="0" width="6" height="6"/>
        </g>
        <g transform="matrix(4.80667,0,0,4.80667,616,84)">
            <rect x="0" y="0" width="6" height="6"/>
        </g>
        <g transform="matrix(4.80667,0,0,4.80667,280,112)">
            <rect x="0" y="0" width="6" height="6"/>
        </g>
        <g transform="matrix(4.80667,0,0,4.80667,308,112)">
            <rect x="0" y="0" width="6" height="6"/>
        </g>
        <g transform="matrix(4.80667,0,0,4.80667,448,112)">
            <rect x="0" y="0" width="6" height="6"/>
        </g>
        <g transform="matrix(4.80667,0,0,4.80667,504,112)">
            <rect x="0" y="0" width="6" height="6"/>
        </g>
        <g transform="matrix(4.80667,0,0,4.80667,616,112)">
            <rect x="0" y="0" width="6" height="6"/>
        </g>
        <g transform="matrix(4.80667,0,0,4.80667,280,140)">
            <rect x="0" y="0" width="6" height="6"/>
        </g>
        <g transform="matrix(4.80667,0,0,4.80667,308,140)">
            <rect x="0" y="0" width="6" height="6"/>
        </g>
        <g transform="matrix(4.80667,0,0,4.80667,364,140)">
            <rect x="0" y="0" width="6" height="6"/>
        </g>
        <g transform="matrix(4.80667,0,0,4.80667,392,140)">
            <rect x="0" y="0" width="6" height="6"/>
        </g>
        <g transform="matrix(4.80667,0,0,4.80667,532,140)">
            <rect x="0" y="0" width="6" height="6"/>
        </g>
        <g transform="matrix(4.80667,0,0,4.80667,588,140)">
            <rect x="0" y="0" width="6" height="6"/>
        </g>
        <g transform="matrix(4.80667,0,0,4.80667,280,168)">
            <rect x="0" y="0" width="6" height="6"/>
        </g>
        <g transform="matrix(4.80667,0,0,4.80667,308,168)">
            <rect x="0" y="0" width="6" height="6"/>
        </g>
        <g transform="matrix(4.80667,0,0,4.80667,336,168)">
            <rect x="0" y="0" width="6" height="6"/>
        </g>
        <g transform="matrix(4.80667,0,0,4.80667,420,168)">
            <rect x="0" y="0" width="6" height="6"/>
        </g>
        <g transform="matrix(4.80667,0,0,4.80667,448,168)">
            <rect x="0" y="0" width="6" height="6"/>
        </g>
        <g transform="matrix(4.80667,0,0,4.80667,476,168)">
            <rect x="0" y="0" width="6" height="6"/>
        </g>
        <g transform="matrix(4.80667,0,0,4.80667,560,168)">
            <rect x="0" y="0" width="6" height="6"/>
        </g>
        <g transform="matrix(4.80667,0,0,4.80667,588,168)">
            <rect x="0" y="0" width="6" height="6"/>
        </g>
        <g transform="matrix(4.80667,0,0,4.80667,616,168)">
            <rect x="0" y="0" width="6" height="6"/>
        </g>
        <g transform="matrix(4.80667,0,0,4.80667,280,196)">
            <rect x="0" y="0" width="6" height="6"/>
        </g>
        <g transform="matrix(4.80667,0,0,4.80667,420,196)">
            <rect x="0" y="0" width="6" height="6"/>
        </g>
        <g transform="matrix(4.80667,0,0,4.80667,448,196)">
            <rect x="0" y="0" width="6" height="6"/>
        </g>
        <g transform="matrix(4.80667,0,0,4.80667,476,196)">
            <rect x="0" y="0" width="6" height="6"/>
        </g>
        <g transform="matrix(4.80667,0,0,4.80667,504,196)">
            <rect x="0" y="0" width="6" height="6"/>
        </g>
        <g transform="matrix(4.80667,0,0,4.80667,560,196)">
            <rect x="0" y="0" width="6" height="6"/>
        </g>
        <g transform="matrix(4.80667,0,0,4.80667,616,196)">
            <rect x="0" y="0" width="6" height="6"/>
        </g>
        <g transform="matrix(4.80667,0,0,4.80667,280,224)">
            <rect x="0" y="0" width="6" height="6"/>
        </g>
        <g transform="matrix(4.80667,0,0,4.80667,336,224)">
            <rect x="0" y="0" width="6" height="6"/>
        </g>
        <g transform="matrix(4.80667,0,0,4.80667,392,224)">
            <rect x="0" y="0" width="6" height="6"/>
        </g>
        <g transform="matrix(4.80667,0,0,4.80667,448,224)">
            <rect x="0" y="0" width="6" height="6"/>
        </g>
        <g transform="matrix(4.80667,0,0,4.80667,504,224)">
            <rect x="0" y="0" width="6" height="6"/>
        </g>
        <g transform="matrix(4.80667,0,0,4.80667,560,224)">
            <rect x="0" y="0" width="6" height="6"/>
        </g>
        <g transform="matrix(4.80667,0,0,4.80667,616,224)">
            <rect x="0" y="0" width="6" height="6"/>
        </g>
        <g transform="matrix(4.80667,0,0,4.80667,280,252)">
            <rect x="0" y="0" width="6" height="6"/>
        </g>
        <g transform="matrix(4.80667,0,0,4.80667,308,252)">
            <rect x="0" y="0" width="6" height="6"/>
        </g>
        <g transform="matrix(4.80667,0,0,4.80667,336,252)">
            <rect x="0" y="0" width="6" height="6"/>
        </g>
        <g transform="matrix(4.80667,0,0,4.80667,364,252)">
            <rect x="0" y="0" width="6" height="6"/>
        </g>
        <g transform="matrix(4.80667,0,0,4.80667,392,252)">
            <rect x="0" y="0" width="6" height="6"/>
        </g>
        <g transform="matrix(4.80667,0,0,4.80667,420,252)">
            <rect x="0" y="0" width="6" height="6"/>
        </g>
        <g transform="matrix(4.80667,0,0,4.80667,588,252)">
            <rect x="0" y="0" width="6" height="6"/>
        </g>
        <g transform="matrix(4.80667,0,0,4.80667,616,252)">
            <rect x="0" y="0" width="6" height="6"/>
        </g>
        <g transform="matrix(4.80667,0,0,4.80667,56,280)">
            <rect x="0" y="0" width="6" height="6"/>
        </g>
        <g transform="matrix(4.80667,0,0,4.80667,112,280)">
            <rect x="0" y="0" width="6" height="6"/>
        </g>
        <g transform="matrix(4.80667,0,0,4.80667,140,280)">
            <rect x="0" y="0" width="6" height="6"/>
        </g>
        <g transform="matrix(4.80667,0,0,4.80667,168,280)">
            <rect x="0" y="0" width="6" height="6"/>
        </g>
        <g transform="matrix(4.80667,0,0,4.80667,196,280)">
            <rect x="0" y="0" width="6" height="6"/>
        </g>
        <g transform="matrix(4.80667,0,0,4.80667,224,280)">
            <rect x="0" y="0" width="6" height="6"/>
        </g>
        <g transform="matrix(4.80667,0,0,4.80667,308,280)">
            <rect x="0" y="0" width="6" height="6"/>
        </g>
        <g transform="matrix(4.80667,0,0,4.80667,364,280)">
            <rect x="0" y="0" width="6" height="6"/>
        </g>
        <g transform="matrix(4.80667,0,0,4.80667,392,280)">
            <rect x="0" y="0" width="6" height="6"/>
        </g>
        <g transform="matrix(4.80667,0,0,4.80667,448,280)">
            <rect x="0" y="0" width="6" height="6"/>
        </g>
        <g transform="matrix(4.80667,0,0,4.80667,476,280)">
            <rect x="0" y="0" width="6" height="6"/>
        </g>
        <g transform="matrix(4.80667,0,0,4.80667,504,280)">
            <rect x="0" y="0" width="6" height="6"/>
        </g>
        <g transform="matrix(4.80667,0,0,4.80667,532,280)">
            <rect x="0" y="0" width="6" height="6"/>
        </g>
        <g transform="matrix(4.80667,0,0,4.80667,588,280)">
            <rect x="0" y="0" width="6" height="6"/>
        </g>
        <g transform="matrix(4.80667,0,0,4.80667,672,280)">
            <rect x="0" y="0" width="6" height="6"/>
        </g>
        <g transform="matrix(4.80667,0,0,4.80667,700,280)">
            <rect x="0" y="0" width="6" height="6"/>
        </g>
        <g transform="matrix(4.80667,0,0,4.80667,728,280)">
            <rect x="0" y="0" width="6" height="6"/>
        </g>
        <g transform="matrix(4.80667,0,0,4.80667,756,280)">
            <rect x="0" y="0" width="6" height="6"/>
        </g>
        <g transform="matrix(4.80667,0,0,4.80667,784,280)">
            <rect x="0" y="0" width="6" height="6"/>
        </g>
        <g transform="matrix(4.80667,0,0,4.80667,140,308)">
            <rect x="0" y="0" width="6" height="6"/>
        </g>
        <g transform="matrix(4.80667,0,0,4.80667,196,308)">
            <rect x="0" y="0" width="6" height="6"/>
        </g>
        <g transform="matrix(4.80667,0,0,4.80667,252,308)">
            <rect x="0" y="0" width="6" height="6"/>
        </g>
        <g transform="matrix(4.80667,0,0,4.80667,280,308)">
            <rect x="0" y="0" width="6" height="6"/>
        </g>
        <g transform="matrix(4.80667,0,0,4.80667,308,308)">
            <rect x="0" y="0" width="6" height="6"/>
        </g>
        <g transform="matrix(4.80667,0,0,4.80667,476,308)">
            <rect x="0" y="0" width="6" height="6"/>
        </g>
        <g transform="matrix(4.80667,0,0,4.80667,588,308)">
            <rect x="0" y="0" width="6" height="6"/>
        </g>
        <g transform="matrix(4.80667,0,0,4.80667,616,308)">
            <rect x="0" y="0" width="6" height="6"/>
        </g>
        <g transform="matrix(4.80667,0,0,4.80667,644,308)">
            <rect x="0" y="0" width="6" height="6"/>
        </g>
        <g transform="matrix(4.80667,0,0,4.80667,672,308)">
            <rect x="0" y="0" width="6" height="6"/>
        </g>
        <g transform="matrix(4.80667,0,0,4.80667,728,308)">
            <rect x="0" y="0" width="6" height="6"/>
        </g>
        <g transform="matrix(4.80667,0,0,4.80667,840,308)">
            <rect x="0" y="0" width="6" height="6"/>
        </g>
        <g transform="matrix(4.80667,0,0,4.80667,84,336)">
            <rect x="0" y="0" width="6" height="6"/>
        </g>
        <g transform="matrix(4.80667,0,0,4.80667,112,336)">
            <rect x="0" y="0" width="6" height="6"/>
        </g>
        <g transform="matrix(4.80667,0,0,4.80667,168,336)">
            <rect x="0" y="0" width="6" height="6"/>
        </g>
        <g transform="matrix(4.80667,0,0,4.80667,196,336)">
            <rect x="0" y="0" width="6" height="6"/>
        </g>
        <g transform="matrix(4.80667,0,0,4.80667,224,336)">
            <rect x="0" y="0" width="6" height="6"/>
        </g>
        <g transform="matrix(4.80667,0,0,4.80667,252,336)">
            <rect x="0" y="0" width="6" height="6"/>
        </g>
        <g transform="matrix(4.80667,0,0,4.80667,364,336)">
            <rect x="0" y="0" width="6" height="6"/>
        </g>
        <g transform="matrix(4.80667,0,0,4.80667,560,336)">
            <rect x="0" y="0" width="6" height="6"/>
        </g>
        <g transform="matrix(4.80667,0,0,4.80667,616,336)">
            <rect x="0" y="0" width="6" height="6"/>
        </g>
        <g transform="matrix(4.80667,0,0,4.80667,672,336)">
            <rect x="0" y="0" width="6" height="6"/>
        </g>
        <g transform="matrix(4.80667,0,0,4.80667,700,336)">
            <rect x="0" y="0" width="6" height="6"/>
        </g>
        <g transform="matrix(4.80667,0,0,4.80667,112,364)">
            <rect x="0" y="0" width="6" height="6"/>
        </g>
        <g transform="matrix(4.80667,0,0,4.80667,140,364)">
            <rect x="0" y="0" width="6" height="6"/>
        </g>
        <g transform="matrix(4.80667,0,0,4.80667,168,364)">
            <rect x="0" y="0" width="6" height="6"/>
        </g>
        <g transform="matrix(4.80667,0,0,4.80667,252,364)">
            <rect x="0" y="0" width="6" height="6"/>
        </g>
        <g transform="matrix(4.80667,0,0,4.80667,280,364)">
            <rect x="0" y="0" width="6" height="6"/>
        </g>
        <g transform="matrix(4.80667,0,0,4.80667,364,364)">
            <rect x="0" y="0" width="6" height="6"/>
        </g>
        <g transform="matrix(4.80667,0,0,4.80667,448,364)">
            <rect x="0" y="0" width="6" height="6"/>
        </g>
        <g transform="matrix(4.80667,0,0,4.80667,476,364)">
            <rect x="0" y="0" width="6" height="6"/>
        </g>
        <g transform="matrix(4.80667,0,0,4.80667,504,364)">
            <rect x="0" y="0" width="6" height="6"/>
        </g>
        <g transform="matrix(4.80667,0,0,4.80667,560,364)">
            <rect x="0" y="0" width="6" height="6"/>
        </g>
        <g transform="matrix(4.80667,0,0,4.80667,588,364)">
            <rect x="0" y="0" width="6" height="6"/>
        </g>
        <g transform="matrix(4.80667,0,0,4.80667,644,364)">
            <rect x="0" y="0" width="6" height="6"/>
        </g>
        <g transform="matrix(4.80667,0,0,4.80667,672,364)">
            <rect x="0" y="0" width="6" height="6"/>
        </g>
        <g transform="matrix(4.80667,0,0,4.80667,728,364)">
            <rect x="0" y="0" width="6" height="6"/>
        </g>
        <g transform="matrix(4.80667,0,0,4.80667,756,364)">
            <rect x="0" y="0" width="6" height="6"/>
        </g>
        <g transform="matrix(4.80667,0,0,4.80667,812,364)">
            <rect x="0" y="0" width="6" height="6"/>
        </g>
        <g transform="matrix(4.80667,0,0,4.80667,168,392)">
            <rect x="0" y="0" width="6" height="6"/>
        </g>
        <g transform="matrix(4.80667,0,0,4.80667,196,392)">
            <rect x="0" y="0" width="6" height="6"/>
        </g>
        <g transform="matrix(4.80667,0,0,4.80667,224,392)">
            <rect x="0" y="0" width="6" height="6"/>
        </g>
        <g transform="matrix(4.80667,0,0,4.80667,252,392)">
            <rect x="0" y="0" width="6" height="6"/>
        </g>
        <g transform="matrix(4.80667,0,0,4.80667,280,392)">
            <rect x="0" y="0" width="6" height="6"/>
        </g>
        <g transform="matrix(4.80667,0,0,4.80667,308,392)">
            <rect x="0" y="0" width="6" height="6"/>
        </g>
        <g transform="matrix(4.80667,0,0,4.80667,336,392)">
            <rect x="0" y="0" width="6" height="6"/>
        </g>
        <g transform="matrix(4.80667,0,0,4.80667,476,392)">
            <rect x="0" y="0" width="6" height="6"/>
        </g>
        <g transform="matrix(4.80667,0,0,4.80667,532,392)">
            <rect x="0" y="0" width="6" height="6"/>
        </g>
        <g transform="matrix(4.80667,0,0,4.80667,700,392)">
            <rect x="0" y="0" width="6" height="6"/>
        </g>
        <g transform="matrix(4.80667,0,0,4.80667,756,392)">
            <rect x="0" y="0" width="6" height="6"/>
        </g>
        <g transform="matrix(4.80667,0,0,4.80667,784,392)">
            <rect x="0" y="0" width="6" height="6"/>
        </g>
        <g transform="matrix(4.80667,0,0,4.80667,140,420)">
            <rect x="0" y="0" width="6" height="6"/>
        </g>
        <g transform="matrix(4.80667,0,0,4.80667,308,420)">
            <rect x="0" y="0" width="6" height="6"/>
        </g>
        <g transform="matrix(4.80667,0,0,4.80667,336,420)">
            <rect x="0" y="0" width="6" height="6"/>
        </g>
        <g transform="matrix(4.80667,0,0,4.80667,420,420)">
            <rect x="0" y="0" width="6" height="6"/>
        </g>
        <g transform="matrix(4.80667,0,0,4.80667,448,420)">
            <rect x="0" y="0" width="6" height="6"/>
        </g>
        <g transform="matrix(4.80667,0,0,4.80667,476,420)">
            <rect x="0" y="0" width="6" height="6"/>
        </g>
        <g transform="matrix(4.80667,0,0,4.80667,588,420)">
            <rect x="0" y="0" width="6" height="6"/>
        </g>
        <g transform="matrix(4.80667,0,0,4.80667,616,420)">
            <rect x="0" y="0" width="6" height="6"/>
        </g>
        <g transform="matrix(4.80667,0,0,4.80667,644,420)">
            <rect x="0" y="0" width="6" height="6"/>
        </g>
        <g transform="matrix(4.80667,0,0,4.80667,672,420)">
            <rect x="0" y="0" width="6" height="6"/>
        </g>
        <g transform="matrix(4.80667,0,0,4.80667,700,420)">
            <rect x="0" y="0" width="6" height="6"/>
        </g>
        <g transform="matrix(4.80667,0,0,4.80667,728,420)">
            <rect x="0" y="0" width="6" height="6"/>
        </g>
        <g transform="matrix(4.80667,0,0,4.80667,840,420)">
            <rect x="0" y="0" width="6" height="6"/>
        </g>
        <g transform="matrix(4.80667,0,0,4.80667,56,448)">
            <rect x="0" y="0" width="6" height="6"/>
        </g>
        <g transform="matrix(4.80667,0,0,4.80667,140,448)">
            <rect x="0" y="0" width="6" height="6"/>
        </g>
        <g transform="matrix(4.80667,0,0,4.80667,168,448)">
            <rect x="0" y="0" width="6" height="6"/>
        </g>
        <g transform="matrix(4.80667,0,0,4.80667,196,448)">
            <rect x="0" y="0" width="6" height="6"/>
        </g>
        <g transform="matrix(4.80667,0,0,4.80667,224,448)">
            <rect x="0" y="0" width="6" height="6"/>
        </g>
        <g transform="matrix(4.80667,0,0,4.80667,280,448)">
            <rect x="0" y="0" width="6" height="6"/>
        </g>
        <g transform="matrix(4.80667,0,0,4.80667,364,448)">
            <rect x="0" y="0" width="6" height="6"/>
        </g>
        <g transform="matrix(4.80667,0,0,4.80667,420,448)">
            <rect x="0" y="0" width="6" height="6"/>
        </g>
        <g transform="matrix(4.80667,0,0,4.80667,448,448)">
            <rect x="0" y="0" width="6" height="6"/>
        </g>
        <g transform="matrix(4.80667,0,0,4.80667,504,448)">
            <rect x="0" y="0" width="6" height="6"/>
        </g>
        <g transform="matrix(4.80667,0,0,4.80667,560,448)">
            <rect x="0" y="0" width="6" height="6"/>
        </g>
        <g transform="matrix(4.80667,0,0,4.80667,644,448)">
            <rect x="0" y="0" width="6" height="6"/>
        </g>
        <g transform="matrix(4.80667,0,0,4.80667,728,448)">
            <rect x="0" y="0" width="6" height="6"/>
        </g>
        <g transform="matrix(4.80667,0,0,4.80667,756,448)">
            <rect x="0" y="0" width="6" height="6"/>
        </g>
        <g transform="matrix(4.80667,0,0,4.80667,784,448)">
            <rect x="0" y="0" width="6" height="6"/>
        </g>
        <g transform="matrix(4.80667,0,0,4.80667,56,476)">
            <rect x="0" y="0" width="6" height="6"/>
        </g>
        <g transform="matrix(4.80667,0,0,4.80667,84,476)">
            <rect x="0" y="0" width="6" height="6"/>
        </g>
        <g transform="matrix(4.80667,0,0,4.80667,112,476)">
            <rect x="0" y="0" width="6" height="6"/>
        </g>
        <g transform="matrix(4.80667,0,0,4.80667,140,476)">
            <rect x="0" y="0" width="6" height="6"/>
        </g>
        <g transform="matrix(4.80667,0,0,4.80667,168,476)">
            <rect x="0" y="0" width="6" height="6"/>
        </g>
        <g transform="matrix(4.80667,0,0,4.80667,280,476)">
            <rect x="0" y="0" width="6" height="6"/>
        </g>
        <g transform="matrix(4.80667,0,0,4.80667,364,476)">
            <rect x="0" y="0" width="6" height="6"/>
        </g>
        <g transform="matrix(4.80667,0,0,4.80667,420,476)">
            <rect x="0" y="0" width="6" height="6"/>
        </g>
        <g transform="matrix(4.80667,0,0,4.80667,560,476)">
            <rect x="0" y="0" width="6" height="6"/>
        </g>
        <g transform="matrix(4.80667,0,0,4.80667,588,476)">
            <rect x="0" y="0" width="6" height="6"/>
        </g>
        <g transform="matrix(4.80667,0,0,4.80667,616,476)">
            <rect x="0" y="0" width="6" height="6"/>
        </g>
        <g transform="matrix(4.80667,0,0,4.80667,728,476)">
            <rect x="0" y="0" width="6" height="6"/>
        </g>
        <g transform="matrix(4.80667,0,0,4.80667,812,476)">
            <rect x="0" y="0" width="6" height="6"/>
        </g>
        <g transform="matrix(4.80667,0,0,4.80667,56,504)">
            <rect x="0" y="0" width="6" height="6"/>
        </g>
        <g transform="matrix(4.80667,0,0,4.80667,112,504)">
            <rect x="0" y="0" width="6" height="6"/>
        </g>
        <g transform="matrix(4.80667,0,0,4.80667,196,504)">
            <rect x="0" y="0" width="6" height="6"/>
        </g>
        <g transform="matrix(4.80667,0,0,4.80667,224,504)">
            <rect x="0" y="0" width="6" height="6"/>
        </g>
        <g transform="matrix(4.80667,0,0,4.80667,308,504)">
            <rect x="0" y="0" width="6" height="6"/>
        </g>
        <g transform="matrix(4.80667,0,0,4.80667,364,504)">
            <rect x="0" y="0" width="6" height="6"/>
        </g>
        <g transform="matrix(4.80667,0,0,4.80667,392,504)">
            <rect x="0" y="0" width="6" height="6"/>
        </g>
        <g transform="matrix(4.80667,0,0,4.80667,448,504)">
            <rect x="0" y="0" width="6" height="6"/>
        </g>
        <g transform="matrix(4.80667,0,0,4.80667,476,504)">
            <rect x="0" y="0" width="6" height="6"/>
        </g>
        <g transform="matrix(4.80667,0,0,4.80667,532,504)">
            <rect x="0" y="0" width="6" height="6"/>
        </g>
        <g transform="matrix(4.80667,0,0,4.80667,560,504)">
            <rect x="0" y="0" width="6" height="6"/>
        </g>
        <g transform="matrix(4.80667,0,0,4.80667,588,504)">
            <rect x="0" y="0" width="6" height="6"/>
        </g>
        <g transform="matrix(4.80667,0,0,4.80667,700,504)">
            <rect x="0" y="0" width="6" height="6"/>
        </g>
        <g transform="matrix(4.80667,0,0,4.80667,756,504)">
            <rect x="0" y="0" width="6" height="6"/>
        </g>
        <g transform="matrix(4.80667,0,0,4.80667,784,504)">
            <rect x="0" y="0" width="6" height="6"/>
        </g>
        <g transform="matrix(4.80667,0,0,4.80667,56,532)">
            <rect x="0" y="0" width="6" height="6"/>
        </g>
        <g transform="matrix(4.80667,0,0,4.80667,84,532)">
            <rect x="0" y="0" width="6" height="6"/>
        </g>
        <g transform="matrix(4.80667,0,0,4.80667,112,532)">
            <rect x="0" y="0" width="6" height="6"/>
        </g>
        <g transform="matrix(4.80667,0,0,4.80667,196,532)">
            <rect x="0" y="0" width="6" height="6"/>
        </g>
        <g transform="matrix(4.80667,0,0,4.80667,252,532)">
            <rect x="0" y="0" width="6" height="6"/>
        </g>
        <g transform="matrix(4.80667,0,0,4.80667,308,532)">
            <rect x="0" y="0" width="6" height="6"/>
        </g>
        <g transform="matrix(4.80667,0,0,4.80667,392,532)">
            <rect x="0" y="0" width="6" height="6"/>
        </g>
        <g transform="matrix(4.80667,0,0,4.80667,504,532)">
            <rect x="0" y="0" width="6" height="6"/>
        </g>
        <g transform="matrix(4.80667,0,0,4.80667,532,532)">
            <rect x="0" y="0" width="6" height="6"/>
        </g>
        <g transform="matrix(4.80667,0,0,4.80667,560,532)">
            <rect x="0" y="0" width="6" height="6"/>
        </g>
        <g transform="matrix(4.80667,0,0,4.80667,588,532)">
            <rect x="0" y="0" width="6" height="6"/>
        </g>
        <g transform="matrix(4.80667,0,0,4.80667,672,532)">
            <rect x="0" y="0" width="6" height="6"/>
        </g>
        <g transform="matrix(4.80667,0,0,4.80667,700,532)">
            <rect x="0" y="0" width="6" height="6"/>
        </g>
        <g transform="matrix(4.80667,0,0,4.80667,728,532)">
            <rect x="0" y="0" width="6" height="6"/>
        </g>
        <g transform="matrix(4.80667,0,0,4.80667,784,532)">
            <rect x="0" y="0" width="6" height="6"/>
        </g>
        <g transform="matrix(4.80667,0,0,4.80667,840,532)">
            <rect x="0" y="0" width="6" height="6"/>
        </g>
        <g transform="matrix(4.80667,0,0,4.80667,56,560)">
            <rect x="0" y="0" width="6" height="6"/>
        </g>
        <g transform="matrix(4.80667,0,0,4.80667,112,560)">
            <rect x="0" y="0" width="6" height="6"/>
        </g>
        <g transform="matrix(4.80667,0,0,4.80667,140,560)">
            <rect x="0" y="0" width="6" height="6"/>
        </g>
        <g transform="matrix(4.80667,0,0,4.80667,168,560)">
            <rect x="0" y="0" width="6" height="6"/>
        </g>
        <g transform="matrix(4.80667,0,0,4.80667,224,560)">
            <rect x="0" y="0" width="6" height="6"/>
        </g>
        <g transform="matrix(4.80667,0,0,4.80667,252,560)">
            <rect x="0" y="0" width="6" height="6"/>
        </g>
        <g transform="matrix(4.80667,0,0,4.80667,308,560)">
            <rect x="0" y="0" width="6" height="6"/>
        </g>
        <g transform="matrix(4.80667,0,0,4.80667,336,560)">
            <rect x="0" y="0" width="6" height="6"/>
        </g>
        <g transform="matrix(4.80667,0,0,4.80667,476,560)">
            <rect x="0" y="0" width="6" height="6"/>
        </g>
        <g transform="matrix(4.80667,0,0,4.80667,504,560)">
            <rect x="0" y="0" width="6" height="6"/>
        </g>
        <g transform="matrix(4.80667,0,0,4.80667,532,560)">
            <rect x="0" y="0" width="6" height="6"/>
        </g>
        <g transform="matrix(4.80667,0,0,4.80667,616,560)">
            <rect x="0" y="0" width="6" height="6"/>
        </g>
        <g transform="matrix(4.80667,0,0,4.80667,644,560)">
            <rect x="0" y="0" width="6" height="6"/>
        </g>
        <g transform="matrix(4.80667,0,0,4.80667,728,560)">
            <rect x="0" y="0" width="6" height="6"/>
        </g>
        <g transform="matrix(4.80667,0,0,4.80667,784,560)">
            <rect x="0" y="0" width="6" height="6"/>
        </g>
        <g transform="matrix(4.80667,0,0,4.80667,56,588)">
            <rect x="0" y="0" width="6" height="6"/>
        </g>
        <g transform="matrix(4.80667,0,0,4.80667,112,588)">
            <rect x="0" y="0" width="6" height="6"/>
        </g>
        <g transform="matrix(4.80667,0,0,4.80667,140,588)">
            <rect x="0" y="0" width="6" height="6"/>
        </g>
        <g transform="matrix(4.80667,0,0,4.80667,252,588)">
            <rect x="0" y="0" width="6" height="6"/>
        </g>
        <g transform="matrix(4.80667,0,0,4.80667,336,588)">
            <rect x="0" y="0" width="6" height="6"/>
        </g>
        <g transform="matrix(4.80667,0,0,4.80667,364,588)">
            <rect x="0" y="0" width="6" height="6"/>
        </g>
        <g transform="matrix(4.80667,0,0,4.80667,448,588)">
            <rect x="0" y="0" width="6" height="6"/>
        </g>
        <g transform="matrix(4.80667,0,0,4.80667,504,588)">
            <rect x="0" y="0" width="6" height="6"/>
        </g>
        <g transform="matrix(4.80667,0,0,4.80667,616,588)">
            <rect x="0" y="0" width="6" height="6"/>
        </g>
        <g transform="matrix(4.80667,0,0,4.80667,644,588)">
            <rect x="0" y="0" width="6" height="6"/>
        </g>
        <g transform="matrix(4.80667,0,0,4.80667,728,588)">
            <rect x="0" y="0" width="6" height="6"/>
        </g>
        <g transform="matrix(4.80667,0,0,4.80667,812,588)">
            <rect x="0" y="0" width="6" height="6"/>
        </g>
        <g transform="matrix(4.80667,0,0,4.80667,56,616)">
            <rect x="0" y="0" width="6" height="6"/>
        </g>
        <g transform="matrix(4.80667,0,0,4.80667,112,616)">
            <rect x="0" y="0" width="6" height="6"/>
        </g>
        <g transform="matrix(4.80667,0,0,4.80667,140,616)">
            <rect x="0" y="0" width="6" height="6"/>
        </g>
        <g transform="matrix(4.80667,0,0,4.80667,196,616)">
            <rect x="0" y="0" width="6" height="6"/>
        </g>
        <g transform="matrix(4.80667,0,0,4.80667,224,616)">
            <rect x="0" y="0" width="6" height="6"/>
        </g>
        <g transform="matrix(4.80667,0,0,4.80667,280,616)">
            <rect x="0" y="0" width="6" height="6"/>
        </g>
        <g transform="matrix(4.80667,0,0,4.80667,308,616)">
            <rect x="0" y="0" width="6" height="6"/>
        </g>
        <g transform="matrix(4.80667,0,0,4.80667,364,616)">
            <rect x="0" y="0" width="6" height="6"/>
        </g>
        <g transform="matrix(4.80667,0,0,4.80667,532,616)">
            <rect x="0" y="0" width="6" height="6"/>
        </g>
        <g transform="matrix(4.80667,0,0,4.80667,616,616)">
            <rect x="0" y="0" width="6" height="6"/>
        </g>
        <g transform="matrix(4.80667,0,0,4.80667,644,616)">
            <rect x="0" y="0" width="6" height="6"/>
        </g>
        <g transform="matrix(4.80667,0,0,4.80667,672,616)">
            <rect x="0" y="0" width="6" height="6"/>
        </g>
        <g transform="matrix(4.80667,0,0,4.80667,700,616)">
            <rect x="0" y="0" width="6" height="6"/>
        </g>
        <g transform="matrix(4.80667,0,0,4.80667,728,616)">
            <rect x="0" y="0" width="6" height="6"/>
        </g>
        <g transform="matrix(4.80667,0,0,4.80667,784,616)">
            <rect x="0" y="0" width="6" height="6"/>
        </g>
        <g transform="matrix(4.80667,0,0,4.80667,812,616)">
            <rect x="0" y="0" width="6" height="6"/>
        </g>
        <g transform="matrix(4.80667,0,0,4.80667,840,616)">
            <rect x="0" y="0" width="6" height="6"/>
        </g>
        <g transform="matrix(4.80667,0,0,4.80667,280,644)">
            <rect x="0" y="0" width="6" height="6"/>
        </g>
        <g transform="matrix(4.80667,0,0,4.80667,308,644)">
            <rect x="0" y="0" width="6" height="6"/>
        </g>
        <g transform="matrix(4.80667,0,0,4.80667,336,644)">
            <rect x="0" y="0" width="6" height="6"/>
        </g>
        <g transform="matrix(4.80667,0,0,4.80667,364,644)">
            <rect x="0" y="0" width="6" height="6"/>
        </g>
        <g transform="matrix(4.80667,0,0,4.80667,392,644)">
            <rect x="0" y="0" width="6" height="6"/>
        </g>
        <g transform="matrix(4.80667,0,0,4.80667,420,644)">
            <rect x="0" y="0" width="6" height="6"/>
        </g>
        <g transform="matrix(4.80667,0,0,4.80667,448,644)">
            <rect x="0" y="0" width="6" height="6"/>
        </g>
        <g transform="matrix(4.80667,0,0,4.80667,476,644)">
            <rect x="0" y="0" width="6" height="6"/>
        </g>
        <g transform="matrix(4.80667,0,0,4.80667,532,644)">
            <rect x="0" y="0" width="6" height="6"/>
        </g>
        <g transform="matrix(4.80667,0,0,4.80667,560,644)">
            <rect x="0" y="0" width="6" height="6"/>
        </g>
        <g transform="matrix(4.80667,0,0,4.80667,616,644)">
            <rect x="0" y="0" width="6" height="6"/>
        </g>
        <g transform="matrix(4.80667,0,0,4.80667,728,644)">
            <rect x="0" y="0" width="6" height="6"/>
        </g>
        <g transform="matrix(4.80667,0,0,4.80667,756,644)">
            <rect x="0" y="0" width="6" height="6"/>
        </g>
        <g transform="matrix(4.80667,0,0,4.80667,784,644)">
            <rect x="0" y="0" width="6" height="6"/>
        </g>
        <g transform="matrix(4.80667,0,0,4.80667,812,644)">
            <rect x="0" y="0" width="6" height="6"/>
        </g>
        <g transform="matrix(4.80667,0,0,4.80667,840,644)">
            <rect x="0" y="0" width="6" height="6"/>
        </g>
        <g transform="matrix(4.80667,0,0,4.80667,308,672)">
            <rect x="0" y="0" width="6" height="6"/>
        </g>
        <g transform="matrix(4.80667,0,0,4.80667,364,672)">
            <rect x="0" y="0" width="6" height="6"/>
        </g>
        <g transform="matrix(4.80667,0,0,4.80667,392,672)">
            <rect x="0" y="0" width="6" height="6"/>
        </g>
        <g transform="matrix(4.80667,0,0,4.80667,420,672)">
            <rect x="0" y="0" width="6" height="6"/>
        </g>
        <g transform="matrix(4.80667,0,0,4.80667,448,672)">
            <rect x="0" y="0" width="6" height="6"/>
        </g>
        <g transform="matrix(4.80667,0,0,4.80667,560,672)">
            <rect x="0" y="0" width="6" height="6"/>
        </g>
        <g transform="matrix(4.80667,0,0,4.80667,588,672)">
            <rect x="0" y="0" width="6" height="6"/>
        </g>
        <g transform="matrix(4.80667,0,0,4.80667,616,672)">
            <rect x="0" y="0" width="6" height="6"/>
        </g>
        <g transform="matrix(4.80667,0,0,4.80667,672,672)">
            <rect x="0" y="0" width="6" height="6"/>
        </g>
        <g transform="matrix(4.80667,0,0,4.80667,728,672)">
            <rect x="0" y="0" width="6" height="6"/>
        </g>
        <g transform="matrix(4.80667,0,0,4.80667,756,672)">
            <rect x="0" y="0" width="6" height="6"/>
        </g>
        <g transform="matrix(4.80667,0,0,4.80667,784,672)">
            <rect x="0" y="0" width="6" height="6"/>
        </g>
        <g transform="matrix(4.80667,0,0,4.80667,280,700)">
            <rect x="0" y="0" width="6" height="6"/>
        </g>
        <g transform="matrix(4.80667,0,0,4.80667,336,700)">
            <rect x="0" y="0" width="6" height="6"/>
        </g>
        <g transform="matrix(4.80667,0,0,4.80667,420,700)">
            <rect x="0" y="0" width="6" height="6"/>
        </g>
        <g transform="matrix(4.80667,0,0,4.80667,588,700)">
            <rect x="0" y="0" width="6" height="6"/>
        </g>
        <g transform="matrix(4.80667,0,0,4.80667,616,700)">
            <rect x="0" y="0" width="6" height="6"/>
        </g>
        <g transform="matrix(4.80667,0,0,4.80667,728,700)">
            <rect x="0" y="0" width="6" height="6"/>
        </g>
        <g transform="matrix(4.80667,0,0,4.80667,280,728)">
            <rect x="0" y="0" width="6" height="6"/>
        </g>
        <g transform="matrix(4.80667,0,0,4.80667,308,728)">
            <rect x="0" y="0" width="6" height="6"/>
        </g>
        <g transform="matrix(4.80667,0,0,4.80667,336,728)">
            <rect x="0" y="0" width="6" height="6"/>
        </g>
        <g transform="matrix(4.80667,0,0,4.80667,364,728)">
            <rect x="0" y="0" width="6" height="6"/>
        </g>
        <g transform="matrix(4.80667,0,0,4.80667,448,728)">
            <rect x="0" y="0" width="6" height="6"/>
        </g>
        <g transform="matrix(4.80667,0,0,4.80667,532,728)">
            <rect x="0" y="0" width="6" height="6"/>
        </g>
        <g transform="matrix(4.80667,0,0,4.80667,616,728)">
            <rect x="0" y="0" width="6" height="6"/>
        </g>
        <g transform="matrix(4.80667,0,0,4.80667,644,728)">
            <rect x="0" y="0" width="6" height="6"/>
        </g>
        <g transform="matrix(4.80667,0,0,4.80667,672,728)">
            <rect x="0" y="0" width="6" height="6"/>
        </g>
        <g transform="matrix(4.80667,0,0,4.80667,700,728)">
            <rect x="0" y="0" width="6" height="6"/>
        </g>
        <g transform="matrix(4.80667,0,0,4.80667,728,728)">
            <rect x="0" y="0" width="6" height="6"/>
        </g>
        <g transform="matrix(4.80667,0,0,4.80667,784,728)">
            <rect x="0" y="0" width="6" height="6"/>
        </g>
        <g transform="matrix(4.80667,0,0,4.80667,840,728)">
            <rect x="0" y="0" width="6" height="6"/>
        </g>
        <g transform="matrix(4.80667,0,0,4.80667,280,756)">
            <rect x="0" y="0" width="6" height="6"/>
        </g>
        <g transform="matrix(4.80667,0,0,4.80667,336,756)">
            <rect x="0" y="0" width="6" height="6"/>
        </g>
        <g transform="matrix(4.80667,0,0,4.80667,420,756)">
            <rect x="0" y="0" width="6" height="6"/>
        </g>
        <g transform="matrix(4.80667,0,0,4.80667,560,756)">
            <rect x="0" y="0" width="6" height="6"/>
        </g>
        <g transform="matrix(4.80667,0,0,4.80667,700,756)">
            <rect x="0" y="0" width="6" height="6"/>
        </g>
        <g transform="matrix(4.80667,0,0,4.80667,756,756)">
            <rect x="0" y="0" width="6" height="6"/>
        </g>
        <g transform="matrix(4.80667,0,0,4.80667,784,756)">
            <rect x="0" y="0" width="6" height="6"/>
        </g>
        <g transform="matrix(4.80667,0,0,4.80667,280,784)">
            <rect x="0" y="0" width="6" height="6"/>
        </g>
        <g transform="matrix(4.80667,0,0,4.80667,308,784)">
            <rect x="0" y="0" width="6" height="6"/>
        </g>
        <g transform="matrix(4.80667,0,0,4.80667,420,784)">
            <rect x="0" y="0" width="6" height="6"/>
        </g>
        <g transform="matrix(4.80667,0,0,4.80667,476,784)">
            <rect x="0" y="0" width="6" height="6"/>
        </g>
        <g transform="matrix(4.80667,0,0,4.80667,588,784)">
            <rect x="0" y="0" width="6" height="6"/>
        </g>
        <g transform="matrix(4.80667,0,0,4.80667,616,784)">
            <rect x="0" y="0" width="6" height="6"/>
        </g>
        <g transform="matrix(4.80667,0,0,4.80667,672,784)">
            <rect x="0" y="0" width="6" height="6"/>
        </g>
        <g transform="matrix(4.80667,0,0,4.80667,700,784)">
            <rect x="0" y="0" width="6" height="6"/>
        </g>
        <g transform="matrix(4.80667,0,0,4.80667,728,784)">
            <rect x="0" y="0" width="6" height="6"/>
        </g>
        <g transform="matrix(4.80667,0,0,4.80667,756,784)">
            <rect x="0" y="0" width="6" height="6"/>
        </g>
        <g transform="matrix(4.80667,0,0,4.80667,784,784)">
            <rect x="0" y="0" width="6" height="6"/>
        </g>
        <g transform="matrix(4.80667,0,0,4.80667,812,784)">
            <rect x="0" y="0" width="6" height="6"/>
        </g>
        <g transform="matrix(4.80667,0,0,4.80667,308,812)">
            <rect x="0" y="0" width="6" height="6"/>
        </g>
        <g transform="matrix(4.80667,0,0,4.80667,336,812)">
            <rect x="0" y="0" width="6" height="6"/>
        </g>
        <g transform="matrix(4.80667,0,0,4.80667,392,812)">
            <rect x="0" y="0" width="6" height="6"/>
        </g>
        <g transform="matrix(4.80667,0,0,4.80667,420,812)">
            <rect x="0" y="0" width="6" height="6"/>
        </g>
        <g transform="matrix(4.80667,0,0,4.80667,476,812)">
            <rect x="0" y="0" width="6" height="6"/>
        </g>
        <g transform="matrix(4.80667,0,0,4.80667,560,812)">
            <rect x="0" y="0" width="6" height="6"/>
        </g>
        <g transform="matrix(4.80667,0,0,4.80667,616,812)">
            <rect x="0" y="0" width="6" height="6"/>
        </g>
        <g transform="matrix(4.80667,0,0,4.80667,644,812)">
            <rect x="0" y="0" width="6" height="6"/>
        </g>
        <g transform="matrix(4.80667,0,0,4.80667,700,812)">
            <rect x="0" y="0" width="6" height="6"/>
        </g>
        <g transform="matrix(4.80667,0,0,4.80667,728,812)">
            <rect x="0" y="0" width="6" height="6"/>
        </g>
        <g transform="matrix(4.80667,0,0,4.80667,756,812)">
            <rect x="0" y="0" width="6" height="6"/>
        </g>
        <g transform="matrix(4.80667,0,0,4.80667,812,812)">
            <rect x="0" y="0" width="6" height="6"/>
        </g>
        <g transform="matrix(4.80667,0,0,4.80667,280,840)">
            <rect x="0" y="0" width="6" height="6"/>
        </g>
        <g transform="matrix(4.80667,0,0,4.80667,336,840)">
            <rect x="0" y="0" width="6" height="6"/>
        </g>
        <g transform="matrix(4.80667,0,0,4.80667,364,840)">
            <rect x="0" y="0" width="6" height="6"/>
        </g>
        <g transform="matrix(4.80667,0,0,4.80667,420,840)">
            <rect x="0" y="0" width="6" height="6"/>
        </g>
        <g transform="matrix(4.80667,0,0,4.80667,448,840)">
            <rect x="0" y="0" width="6" height="6"/>
        </g>
        <g transform="matrix(4.80667,0,0,4.80667,476,840)">
            <rect x="0" y="0" width="6" height="6"/>
        </g>
        <g transform="matrix(4.80667,0,0,4.80667,504,840)">
            <rect x="0" y="0" width="6" height="6"/>
        </g>
        <g transform="matrix(4.80667,0,0,4.80667,560,840)">
            <rect x="0" y="0" width="6" height="6"/>
        </g>
        <g transform="matrix(4.80667,0,0,4.80667,588,840)">
            <rect x="0" y="0" width="6" height="6"/>
        </g>
        <g transform="matrix(4.80667,0,0,4.80667,644,840)">
            <rect x="0" y="0" width="6" height="6"/>
        </g>
        <g transform="matrix(4.80667,0,0,4.80667,728,840)">
            <rect x="0" y="0" width="6" height="6"/>
        </g>
        <g transform="matrix(4.80667,0,0,4.80667,784,840)">
            <rect x="0" y="0" width="6" height="6"/>
        </g>
        <g transform="matrix(14,0,0,14,56,56)">
            <g>
                <path d="M0,0L0,14L14,14L14,0L0,0ZM12,12L2,12L2,2L12,2L12,12Z" style="fill-rule:nonzero;"/>
            </g>
        </g>
        <g transform="matrix(14,0,0,14,672,56)">
            <g>
                <path d="M0,0L0,14L14,14L14,0L0,0ZM12,12L2,12L2,2L12,2L12,12Z" style="fill-rule:nonzero;"/>
            </g>
        </g>
        <g transform="matrix(14,0,0,14,56,672)">
            <g>
                <path d="M0,0L0,14L14,14L14,0L0,0ZM12,12L2,12L2,2L12,2L12,12Z" style="fill-rule:nonzero;"/>
            </g>
        </g>
        <g transform="matrix(14,0,0,14,112,112)">
            <g>
                <rect x="0" y="0" width="6" height="6"/>
            </g>
        </g>
        <g transform="matrix(14,0,0,14,728,112)">
            <g>
                <rect x="0" y="0" width="6" height="6"/>
            </g>
        </g>
        <g transform="matrix(14,0,0,14,112,728)">
            <g>
                <rect x="0" y="0" width="6" height="6"/>
            </g>
        </g>
    </g>
</svg>
