<?xml version="1.0" encoding="UTF-8" standalone="no"?>
<!DOCTYPE svg PUBLIC "-//W3C//DTD SVG 1.1//EN" "http://www.w3.org/Graphics/SVG/1.1/DTD/svg11.dtd">
<svg width="100%" height="100%" viewBox="0 0 862 256" version="1.1" xmlns="http://www.w3.org/2000/svg" xmlns:xlink="http://www.w3.org/1999/xlink" xml:space="preserve" xmlns:serif="http://www.serif.com/" style="fill-rule:evenodd;clip-rule:evenodd;stroke-linejoin:round;stroke-miterlimit:2;">
    <g id="g10" transform="matrix(0.133333,0,0,-0.133333,0,294.272)">
        <g id="finnish-google-play-badge">
            <g id="g101" serif:id="g10">
                <g id="g12">
                    <g id="g14">
                        <clipPath id="_clip1">
                            <rect x="0" y="292.961" width="6460" height="1914.07"/>
                        </clipPath>
                        <g clip-path="url(#_clip1)">
                            <path id="path20" d="M6220.74,292.969L239.258,292.969C107.668,292.969 0,400.629 0,532.23L0,1967.78C0,2099.38 107.668,2207.04 239.258,2207.04L6220.74,2207.04C6352.33,2207.04 6460,2099.38 6460,1967.78L6460,532.23C6460,400.629 6352.33,292.969 6220.74,292.969" style="fill:rgb(16,15,13);fill-rule:nonzero;"/>
                            <path id="path22" d="M6220.74,2207.03L239.258,2207.03C107.668,2207.03 0,2099.36 0,1967.77L0,532.219C0,400.621 107.668,292.961 239.258,292.961L6220.74,292.961C6352.33,292.961 6460,400.621 6460,532.219L6460,1967.77C6460,2099.36 6352.33,2207.03 6220.74,2207.03M6220.74,2168.75C6331.57,2168.75 6421.72,2078.6 6421.72,1967.77L6421.72,532.219C6421.72,421.391 6331.57,331.238 6220.74,331.238L239.258,331.238C128.434,331.238 38.281,421.391 38.281,532.219L38.281,1967.77C38.281,2078.6 128.434,2168.75 239.258,2168.75L6220.74,2168.75" style="fill:rgb(162,162,161);fill-rule:nonzero;"/>
                            <path id="path24" d="M991.355,1277.56L481.879,736.828C481.926,736.738 481.926,736.59 481.973,736.5C497.621,677.781 551.215,634.57 614.859,634.57C640.316,634.57 664.191,641.461 684.676,653.52L686.301,654.48L1259.76,985.371L991.355,1277.56" style="fill:rgb(235,49,49);fill-rule:nonzero;"/>
                            <path id="path26" d="M1506.76,1369.63L1506.29,1369.97L1258.7,1513.48L979.773,1265.27L1259.7,985.43L1505.95,1127.5C1549.11,1150.86 1578.45,1196.36 1578.45,1248.81C1578.45,1300.97 1549.54,1346.23 1506.76,1369.63" style="fill:rgb(246,182,11);fill-rule:nonzero;"/>
                            <path id="path28" d="M481.867,1763.11C478.805,1751.82 477.18,1739.95 477.18,1727.7L477.18,772.191C477.18,759.941 478.805,748.078 481.918,736.828L1008.86,1263.73L481.867,1763.11" style="fill:rgb(87,120,197);fill-rule:nonzero;"/>
                            <path id="path30" d="M995.117,1249.95L1258.78,1513.57L685.996,1845.66C665.18,1858.15 640.871,1865.33 614.887,1865.33C551.242,1865.33 497.555,1822.02 481.906,1763.26C481.906,1763.21 481.859,1763.16 481.859,1763.11L995.117,1249.95" style="fill:rgb(59,173,73);fill-rule:nonzero;"/>
                        </g>
                    </g>
                </g>
                <g id="g32">
                    <g id="g34">
                        <path id="path40" d="M1999.46,1780.94L2045.25,1780.94L2045.25,1526.16L2173.47,1526.16L2173.47,1482.86L1999.46,1482.86L1999.46,1780.94" style="fill:white;fill-rule:nonzero;"/>
                        <path id="path42" d="M2392.04,1601.93L2358.73,1693.31L2347.49,1727.45L2344.99,1727.45L2333.75,1693.31L2300.45,1601.93L2392.04,1601.93ZM2320.02,1780.94L2372.05,1780.94L2484.88,1482.86L2434.51,1482.86L2407.03,1559.46L2285.46,1559.46L2257.99,1482.86L2207.61,1482.86L2320.02,1780.94" style="fill:white;fill-rule:nonzero;"/>
                        <path id="path44" d="M2562.31,1737.65L2478.63,1737.65L2478.63,1780.94L2691.36,1780.94L2691.36,1737.65L2608.1,1737.65L2608.1,1482.86L2562.31,1482.86L2562.31,1737.65" style="fill:white;fill-rule:nonzero;"/>
                        <path id="path46" d="M2869.96,1601.93L2836.65,1693.31L2825.41,1727.45L2822.91,1727.45L2811.67,1693.31L2778.37,1601.93L2869.96,1601.93ZM2797.94,1780.94L2849.97,1780.94L2962.8,1482.86L2912.43,1482.86L2884.95,1559.46L2763.38,1559.46L2735.91,1482.86L2685.53,1482.86L2797.94,1780.94" style="fill:white;fill-rule:nonzero;"/>
                        <path id="path48" d="M3177.62,1601.93L3144.31,1693.31L3133.07,1727.45L3130.57,1727.45L3119.33,1693.31L3086.03,1601.93L3177.62,1601.93ZM3105.6,1780.94L3157.63,1780.94L3270.45,1482.86L3220.08,1482.86L3192.6,1559.46L3071.04,1559.46L3043.57,1482.86L2993.19,1482.86L3105.6,1780.94" style="fill:white;fill-rule:nonzero;"/>
                        <path id="path50" d="M3427.4,1497.85C3407.69,1512.28 3393.95,1532.54 3386.19,1558.64L3429.48,1576.12C3433.92,1559.46 3441.83,1545.86 3453.21,1535.32C3464.58,1524.77 3478.32,1519.5 3494.43,1519.5C3509.41,1519.5 3522.11,1523.38 3532.51,1531.16C3542.92,1538.92 3548.13,1549.61 3548.13,1563.21C3548.13,1575.71 3543.55,1586.04 3534.39,1594.23C3525.23,1602.41 3509.41,1610.39 3486.93,1618.17L3468.2,1624.83C3447.93,1632.04 3431.08,1642.1 3417.61,1655.01C3404.15,1667.91 3397.43,1685.05 3397.43,1706.42C3397.43,1721.13 3401.38,1734.73 3409.29,1747.22C3417.2,1759.71 3428.29,1769.56 3442.59,1776.78C3456.89,1784 3473.05,1787.6 3491.1,1787.6C3516.91,1787.6 3537.58,1781.29 3553.13,1768.66C3568.67,1756.03 3579.21,1741.81 3584.77,1725.99L3543.55,1708.51C3540.78,1718.5 3534.95,1727.09 3526.07,1734.32C3517.18,1741.53 3505.67,1745.14 3491.51,1745.14C3477.91,1745.14 3466.39,1741.53 3456.96,1734.32C3447.52,1727.09 3442.81,1717.93 3442.81,1706.84C3442.81,1696.57 3447.04,1688.03 3455.5,1681.23C3463.96,1674.44 3477.07,1667.98 3494.84,1661.88L3513.99,1655.22C3539.53,1646.33 3559.22,1634.82 3573.11,1620.67C3586.99,1606.51 3593.92,1587.63 3593.92,1564.05C3593.92,1544.61 3589,1528.3 3579.14,1515.13C3569.29,1501.95 3556.66,1492.16 3541.26,1485.77C3525.85,1479.4 3510.1,1476.2 3494.01,1476.2C3469.3,1476.2 3447.1,1483.42 3427.4,1497.85" style="fill:white;fill-rule:nonzero;"/>
                        <path id="path52" d="M3653.87,1780.94L3834.55,1780.94L3834.55,1737.65L3699.66,1737.65L3699.66,1653.55L3821.22,1653.55L3821.22,1610.26L3699.66,1610.26L3699.66,1526.16L3834.55,1526.16L3834.55,1482.86L3653.87,1482.86L3653.87,1780.94" style="fill:white;fill-rule:nonzero;"/>
                        <path id="path54" d="M2081.85,847.02C2046.19,867.34 2017.87,895.238 1996.94,930.699C1975.99,966.16 1965.53,1005.66 1965.53,1049.2C1965.53,1092.75 1975.99,1132.25 1996.94,1167.71C2017.87,1203.17 2046.19,1231.05 2081.85,1251.37C2117.51,1271.69 2156.51,1281.86 2198.8,1281.86C2232.81,1281.86 2264.12,1275.84 2292.74,1263.81C2321.35,1251.78 2345.61,1234.98 2365.52,1213.43L2318.25,1166.15C2287.96,1200.15 2248.15,1217.16 2198.8,1217.16C2169.77,1217.16 2142.6,1210.21 2117.31,1196.32C2092.02,1182.42 2071.9,1162.62 2056.97,1136.91C2042.04,1111.19 2034.57,1081.96 2034.57,1049.2C2034.57,1016.02 2042.14,986.68 2057.28,961.172C2072.42,935.672 2092.52,915.969 2117.62,902.078C2142.71,888.18 2169.97,881.238 2199.43,881.238C2246.28,881.238 2284.44,895.961 2313.89,925.398C2323.42,934.52 2331.4,946.141 2337.84,960.25C2344.26,974.34 2348.72,989.891 2351.21,1006.9L2198.18,1006.9L2198.18,1067.24L2414.66,1067.24C2417.15,1053.14 2418.39,1041.12 2418.39,1031.16C2418.39,1002.95 2413.94,976.109 2405.02,950.602C2396.1,925.102 2382.32,902.59 2363.66,883.109C2343.74,861.539 2319.9,845.051 2292.11,833.66C2264.33,822.25 2233.23,816.551 2198.8,816.551C2156.51,816.551 2117.51,826.699 2081.85,847.02" style="fill:white;fill-rule:nonzero;"/>
                        <path id="path56" d="M2669.71,891.191C2684.63,899.91 2696.66,912.352 2705.79,928.52C2714.91,944.691 2719.48,963.559 2719.48,985.129C2719.48,1006.68 2714.91,1025.56 2705.79,1041.73C2696.66,1057.91 2684.63,1070.35 2669.71,1079.06C2654.78,1087.77 2638.39,1092.12 2620.56,1092.12C2602.73,1092.12 2586.24,1087.77 2571.11,1079.06C2555.96,1070.35 2543.83,1057.91 2534.72,1041.73C2525.59,1025.56 2521.03,1006.68 2521.03,985.129C2521.03,963.559 2525.59,944.691 2534.72,928.52C2543.83,912.352 2555.96,899.91 2571.11,891.191C2586.24,882.48 2602.73,878.129 2620.56,878.129C2638.39,878.129 2654.78,882.48 2669.71,891.191ZM2534.72,838.629C2509.42,853.34 2489.71,873.559 2475.62,899.281C2461.52,924.988 2454.47,953.609 2454.47,985.129C2454.47,1016.63 2461.52,1045.26 2475.62,1070.97C2489.71,1096.68 2509.42,1116.9 2534.72,1131.62C2560,1146.34 2588.63,1153.7 2620.56,1153.7C2652.07,1153.7 2680.48,1146.24 2705.79,1131.31C2731.08,1116.38 2750.79,1096.06 2764.89,1070.35C2778.98,1044.63 2786.04,1016.23 2786.04,985.129C2786.04,953.609 2778.98,924.988 2764.89,899.281C2750.79,873.559 2731.19,853.34 2706.1,838.629C2681,823.91 2652.49,816.551 2620.56,816.551C2588.63,816.551 2560,823.91 2534.72,838.629" style="fill:white;fill-rule:nonzero;"/>
                        <path id="path58" d="M3030.51,891.191C3045.43,899.91 3057.46,912.352 3066.59,928.52C3075.71,944.691 3080.28,963.559 3080.28,985.129C3080.28,1006.68 3075.71,1025.56 3066.59,1041.73C3057.46,1057.91 3045.43,1070.35 3030.51,1079.06C3015.58,1087.77 2999.19,1092.12 2981.36,1092.12C2963.53,1092.12 2947.04,1087.77 2931.91,1079.06C2916.76,1070.35 2904.63,1057.91 2895.52,1041.73C2886.39,1025.56 2881.83,1006.68 2881.83,985.129C2881.83,963.559 2886.39,944.691 2895.52,928.52C2904.63,912.352 2916.76,899.91 2931.91,891.191C2947.04,882.48 2963.53,878.129 2981.36,878.129C2999.19,878.129 3015.58,882.48 3030.51,891.191ZM2895.52,838.629C2870.22,853.34 2850.51,873.559 2836.42,899.281C2822.32,924.988 2815.27,953.609 2815.27,985.129C2815.27,1016.63 2822.32,1045.26 2836.42,1070.97C2850.51,1096.68 2870.22,1116.9 2895.52,1131.62C2920.8,1146.34 2949.43,1153.7 2981.36,1153.7C3012.87,1153.7 3041.28,1146.24 3066.59,1131.31C3091.88,1116.38 3111.59,1096.06 3125.69,1070.35C3139.78,1044.63 3146.84,1016.23 3146.84,985.129C3146.84,953.609 3139.78,924.988 3125.69,899.281C3111.59,873.559 3091.99,853.34 3066.9,838.629C3041.8,823.91 3013.29,816.551 2981.36,816.551C2949.43,816.551 2920.8,823.91 2895.52,838.629" style="fill:white;fill-rule:nonzero;"/>
                        <path id="path60" d="M3383.21,899.719C3397.31,907.879 3408.61,919.629 3417.11,934.949C3425.61,950.27 3429.87,968.551 3429.87,989.789C3429.87,1011.45 3425.61,1030.03 3417.11,1045.55C3408.61,1061.08 3397.31,1072.82 3383.21,1080.79C3369.11,1088.76 3353.56,1092.75 3336.56,1092.75C3319.54,1092.75 3303.9,1088.76 3289.59,1080.79C3275.28,1072.82 3263.87,1061.08 3255.37,1045.55C3246.87,1030.03 3242.62,1011.45 3242.62,989.789C3242.62,968.551 3246.87,950.16 3255.37,934.641C3263.87,919.109 3275.28,907.379 3289.59,899.41C3303.9,891.441 3319.54,887.461 3336.56,887.461C3353.56,887.461 3369.11,891.551 3383.21,899.719ZM3239.83,708.621C3214.32,726.238 3197.21,747.488 3188.5,772.379L3250.71,798.5C3257.34,781.512 3268.23,767.82 3283.37,757.441C3298.5,747.078 3316.03,741.898 3335.93,741.898C3365.37,741.898 3388.39,750.941 3404.98,769.02C3421.57,787.102 3429.87,812.48 3429.87,845.16L3429.87,875.641L3426.14,875.641C3415.77,860.301 3401.87,848.27 3384.46,839.559C3367.04,830.852 3347.13,826.5 3324.74,826.5C3297.78,826.5 3273,833.27 3250.39,846.828C3227.79,860.379 3209.75,879.578 3196.27,904.441C3182.8,929.289 3176.06,957.75 3176.06,989.789C3176.06,1021.83 3182.8,1050.28 3196.27,1075.13C3209.75,1099.98 3227.79,1119.3 3250.39,1133.06C3273,1146.83 3297.78,1153.7 3324.74,1153.7C3346.71,1153.7 3366.51,1149.25 3384.14,1140.34C3401.77,1131.41 3415.77,1119.28 3426.14,1103.94L3429.87,1103.94L3429.87,1143.75L3493.94,1143.75L3493.94,843.289C3493.94,809.289 3487.3,780.148 3474.04,755.891C3460.76,731.629 3442.2,713.281 3418.36,700.84C3394.51,688.398 3367.04,682.18 3335.93,682.18C3297.37,682.18 3265.33,690.988 3239.83,708.621" style="fill:white;fill-rule:nonzero;"/>
                        <path id="path62" d="M3557.38,1271.9L3624.56,1271.9L3624.56,826.5L3557.38,826.5L3557.38,1271.9" style="fill:white;fill-rule:nonzero;"/>
                        <path id="path64" d="M3930.69,1021.2C3929.85,1032.82 3926.12,1044.43 3919.49,1056.04C3912.85,1067.65 3903.21,1077.29 3890.56,1084.97C3877.9,1092.64 3862.26,1096.48 3843.6,1096.48C3821.2,1096.48 3802.23,1089.63 3786.67,1075.95C3771.13,1062.26 3760.44,1044.01 3754.64,1021.2L3930.69,1021.2ZM3763.66,838.309C3738.98,852.832 3719.69,872.84 3705.8,898.34C3691.91,923.852 3684.96,952.559 3684.96,984.5C3684.96,1014.77 3691.7,1042.87 3705.18,1068.79C3718.66,1094.71 3737.43,1115.34 3761.48,1130.69C3785.53,1146.03 3812.7,1153.7 3842.97,1153.7C3874.91,1153.7 3902.47,1146.76 3925.71,1132.86C3948.93,1118.97 3966.66,1099.79 3978.9,1075.33C3991.13,1050.85 3997.25,1023.07 3997.25,991.969C3997.25,983.672 3996.83,976.621 3996,970.809L3750.9,970.809C3753.8,940.539 3764.59,917.211 3783.26,900.828C3801.92,884.449 3823.69,876.262 3848.57,876.262C3868.89,876.262 3886.3,880.93 3900.82,890.262C3915.34,899.59 3926.96,911.93 3935.66,927.27L3991.03,900.52C3976.51,874.398 3957.22,853.871 3933.18,838.941C3909.12,824.012 3880.3,816.551 3846.7,816.551C3816.01,816.551 3788.32,823.801 3763.66,838.309" style="fill:white;fill-rule:nonzero;"/>
                        <path id="path66" d="M4302.04,1064.13C4324.84,1064.13 4343.19,1071.28 4357.09,1085.59C4370.98,1099.9 4377.93,1116.59 4377.93,1135.67C4377.93,1154.74 4370.98,1171.44 4357.09,1185.75C4343.19,1200.05 4324.84,1207.21 4302.04,1207.21L4215.57,1207.21L4215.57,1064.13L4302.04,1064.13ZM4147.14,1271.9L4300.17,1271.9C4326.7,1271.9 4351.08,1266.09 4373.27,1254.49C4395.44,1242.86 4413.08,1226.69 4426.14,1205.96C4439.2,1185.22 4445.74,1161.8 4445.74,1135.67C4445.74,1109.54 4439.2,1086.11 4426.14,1065.37C4413.08,1044.63 4395.44,1028.46 4373.27,1016.85C4351.08,1005.24 4326.7,999.441 4300.17,999.441L4215.57,999.441L4215.57,826.5L4147.14,826.5L4147.14,1271.9" style="fill:white;fill-rule:nonzero;"/>
                        <path id="path68" d="M4484.92,1271.9L4552.1,1271.9L4552.1,826.5L4484.92,826.5L4484.92,1271.9" style="fill:white;fill-rule:nonzero;"/>
                        <path id="path70" d="M4773.56,883.422C4787.24,891.512 4797.91,902.391 4805.59,916.082C4813.26,929.762 4817.1,944.48 4817.1,960.25C4807.14,966.051 4795.74,970.609 4782.88,973.93C4770.02,977.238 4756.55,978.91 4742.45,978.91C4716.32,978.91 4697.13,973.711 4684.91,963.352C4672.67,952.98 4666.56,939.301 4666.56,922.301C4666.56,907.371 4672.15,895.129 4683.35,885.602C4694.55,876.051 4709.48,871.281 4728.14,871.281C4744.73,871.281 4759.87,875.332 4773.56,883.422ZM4655.37,829.922C4637.52,838.828 4623.64,851.379 4613.69,867.551C4603.72,883.719 4598.75,902.18 4598.75,922.922C4598.75,944.898 4604.55,963.871 4616.17,979.84C4627.78,995.789 4643.54,1008.04 4663.45,1016.54C4683.35,1025.03 4705.53,1029.29 4730.01,1029.29C4748.68,1029.29 4765.56,1027.52 4780.71,1024.01C4795.84,1020.48 4807.97,1016.44 4817.1,1011.88L4817.1,1028.67C4817.1,1048.99 4809.63,1065.47 4794.7,1078.13C4779.78,1090.77 4760.49,1097.1 4736.85,1097.1C4720.68,1097.1 4705.33,1093.46 4690.81,1086.21C4676.29,1078.95 4664.69,1069.1 4655.98,1056.66L4609.95,1092.12C4623.64,1111.61 4641.77,1126.74 4664.38,1137.53C4686.98,1148.31 4711.75,1153.7 4738.71,1153.7C4784.33,1153.7 4819.68,1142.41 4844.78,1119.81C4869.87,1097.2 4882.42,1065.58 4882.42,1024.93L4882.42,826.5L4817.1,826.5L4817.1,865.691L4813.36,865.691C4804.24,851.59 4791.18,839.879 4774.17,830.539C4757.17,821.211 4737.88,816.551 4716.32,816.551C4693.51,816.551 4673.19,821.012 4655.37,829.922" style="fill:white;fill-rule:nonzero;"/>
                        <path id="path72" d="M5026.11,843.922L4893.61,1143.75L4968.26,1143.75L5059.08,927.27L5062.18,927.27L5149.9,1143.75L5223.93,1143.75L5027.97,692.129L4956.43,692.129L5026.11,843.922" style="fill:white;fill-rule:nonzero;"/>
                        <path id="path74" d="M5272.76,840.18C5249.33,855.941 5232.85,876.469 5223.3,901.77L5283.65,927.891C5291.12,910.879 5301.68,897.93 5315.38,889.02C5329.06,880.09 5344.61,875.641 5362.03,875.641C5379.86,875.641 5394.79,878.852 5406.82,885.289C5418.84,891.711 5424.86,901.352 5424.86,914.211C5424.86,925.809 5419.78,935.051 5409.61,941.891C5399.45,948.73 5383.59,954.641 5362.03,959.621L5324.09,968.328C5298.78,974.551 5277.84,985.531 5261.25,1001.3C5244.66,1017.05 5236.37,1036.97 5236.37,1061.02C5236.37,1079.26 5241.86,1095.43 5252.86,1109.54C5263.84,1123.64 5278.57,1134.52 5297.03,1142.2C5315.47,1149.87 5335.69,1153.7 5357.67,1153.7C5387.53,1153.7 5413.56,1147.89 5435.75,1136.29C5457.92,1124.67 5474,1107.68 5483.96,1085.28L5426.11,1059.15C5413.25,1084.45 5390.65,1097.1 5358.29,1097.1C5342.53,1097.1 5329.37,1093.77 5318.79,1087.14C5308.22,1080.51 5302.93,1072.22 5302.93,1062.26C5302.93,1043.6 5319.11,1030.12 5351.45,1021.83L5397.48,1010.63C5428.59,1002.75 5452.12,990.93 5468.09,975.172C5484.06,959.41 5492.04,939.922 5492.04,916.699C5492.04,896.789 5486.34,879.27 5474.94,864.129C5463.53,848.988 5447.88,837.281 5427.97,828.988C5408.06,820.699 5386.08,816.551 5362.03,816.551C5325.95,816.551 5296.19,824.43 5272.76,840.18" style="fill:white;fill-rule:nonzero;"/>
                        <path id="path76" d="M5626.1,823.199C5613.85,827.621 5603.79,833.859 5595.92,841.898C5578.09,859.211 5569.17,883.719 5569.17,915.41L5569.17,1085.28L5513.81,1085.28L5513.81,1143.75L5569.17,1143.75L5569.17,1233.33L5636.36,1233.33L5636.36,1143.75L5714.12,1143.75L5714.12,1085.28L5636.36,1085.28L5636.36,929.102C5636.36,911.238 5639.67,898.699 5646.31,891.488C5653.35,883.41 5664.13,879.379 5678.66,879.379C5686.13,879.379 5692.55,880.309 5697.94,882.172C5703.32,884.039 5709.34,887.039 5715.98,891.191L5715.98,825.871C5701.88,819.648 5685.08,816.551 5665.6,816.551C5651.49,816.551 5638.32,818.77 5626.1,823.199" style="fill:white;fill-rule:nonzero;"/>
                        <path id="path78" d="M5919.4,883.422C5933.08,891.512 5943.75,902.391 5951.43,916.082C5959.1,929.762 5962.94,944.48 5962.94,960.25C5952.98,966.051 5941.58,970.609 5928.72,973.93C5915.86,977.238 5902.39,978.91 5888.29,978.91C5862.16,978.91 5842.97,973.711 5830.75,963.352C5818.51,952.98 5812.4,939.301 5812.4,922.301C5812.4,907.371 5817.99,895.129 5829.19,885.602C5840.39,876.051 5855.32,871.281 5873.98,871.281C5890.57,871.281 5905.71,875.332 5919.4,883.422ZM5801.21,829.922C5783.36,838.828 5769.48,851.379 5759.53,867.551C5749.56,883.719 5744.59,902.18 5744.59,922.922C5744.59,944.898 5750.39,963.871 5762.01,979.84C5773.62,995.789 5789.38,1008.04 5809.29,1016.54C5829.19,1025.03 5851.37,1029.29 5875.85,1029.29C5894.52,1029.29 5911.4,1027.52 5926.55,1024.01C5941.68,1020.48 5953.81,1016.44 5962.94,1011.88L5962.94,1028.67C5962.94,1048.99 5955.47,1065.47 5940.54,1078.13C5925.62,1090.77 5906.33,1097.1 5882.69,1097.1C5866.52,1097.1 5851.17,1093.46 5836.65,1086.21C5822.13,1078.95 5810.53,1069.1 5801.82,1056.66L5755.79,1092.12C5769.48,1111.61 5787.61,1126.74 5810.22,1137.53C5832.82,1148.31 5857.59,1153.7 5884.55,1153.7C5930.17,1153.7 5965.52,1142.41 5990.62,1119.81C6015.71,1097.2 6028.26,1065.58 6028.26,1024.93L6028.26,826.5L5962.94,826.5L5962.94,865.691L5959.2,865.691C5950.08,851.59 5937.02,839.879 5920.01,830.539C5903.01,821.211 5883.72,816.551 5862.16,816.551C5839.35,816.551 5819.03,821.012 5801.21,829.922" style="fill:white;fill-rule:nonzero;"/>
                    </g>
                </g>
            </g>
        </g>
    </g>
</svg>
