<?xml version="1.0" encoding="UTF-8" standalone="no"?>
<!DOCTYPE svg PUBLIC "-//W3C//DTD SVG 1.1//EN" "http://www.w3.org/Graphics/SVG/1.1/DTD/svg11.dtd">
<svg width="100%" height="100%" viewBox="0 0 120 40" version="1.1" xmlns="http://www.w3.org/2000/svg" xmlns:xlink="http://www.w3.org/1999/xlink" xml:space="preserve" xmlns:serif="http://www.serif.com/" style="fill-rule:evenodd;clip-rule:evenodd;stroke-linejoin:round;stroke-miterlimit:2;">
    <g>
        <g>
            <g>
                <path d="M110.135,0L9.535,0C9.168,0 8.806,0 8.44,0.002C8.134,0.004 7.83,0.01 7.521,0.015C6.85,0.023 6.18,0.082 5.517,0.191C4.856,0.304 4.215,0.515 3.616,0.818C3.019,1.124 2.472,1.522 1.998,1.997C1.52,2.471 1.122,3.018 0.819,3.618C0.515,4.217 0.305,4.859 0.194,5.521C0.083,6.183 0.023,6.853 0.015,7.523C0.006,7.83 0.005,8.138 0,8.444L0,31.559C0.005,31.869 0.006,32.17 0.015,32.481C0.023,33.151 0.083,33.821 0.194,34.482C0.304,35.145 0.515,35.788 0.819,36.387C1.122,36.985 1.52,37.53 1.998,38.001C2.471,38.478 3.017,38.876 3.616,39.18C4.215,39.484 4.855,39.697 5.517,39.81C6.18,39.919 6.85,39.978 7.521,39.987C7.83,39.994 8.134,39.998 8.44,39.998C8.806,40 9.168,40 9.535,40L110.135,40C110.494,40 110.859,40 111.219,39.998C111.523,39.998 111.836,39.994 112.141,39.987C112.811,39.979 113.479,39.92 114.141,39.81C114.804,39.696 115.448,39.483 116.049,39.18C116.647,38.876 117.194,38.478 117.666,38.001C118.142,37.528 118.541,36.983 118.848,36.387C119.15,35.787 119.358,35.145 119.467,34.482C119.578,33.821 119.64,33.151 119.652,32.481C119.656,32.17 119.656,31.869 119.656,31.559C119.664,31.195 119.664,30.834 119.664,30.465L119.664,9.536C119.664,9.17 119.664,8.807 119.656,8.444C119.656,8.138 119.656,7.83 119.652,7.523C119.64,6.852 119.578,6.183 119.467,5.521C119.358,4.859 119.149,4.217 118.848,3.618C118.23,2.415 117.251,1.436 116.049,0.818C115.448,0.516 114.804,0.304 114.141,0.191C113.48,0.081 112.811,0.022 112.141,0.015C111.836,0.01 111.523,0.004 111.219,0.002C110.859,-0 110.494,-0 110.135,-0L110.135,0Z" style="fill-rule:nonzero;"/>
                <path d="M8.445,39.125C8.14,39.125 7.843,39.121 7.541,39.114C6.914,39.106 6.29,39.052 5.671,38.951C5.095,38.852 4.537,38.667 4.015,38.403C3.498,38.142 3.026,37.798 2.618,37.387C2.204,36.98 1.859,36.508 1.597,35.99C1.333,35.469 1.149,34.91 1.054,34.333C0.951,33.713 0.896,33.086 0.888,32.458C0.881,32.247 0.873,31.545 0.873,31.545L0.873,8.444C0.873,8.444 0.882,7.753 0.888,7.55C0.895,6.922 0.951,6.297 1.053,5.678C1.149,5.099 1.332,4.539 1.597,4.016C1.857,3.498 2.2,3.026 2.612,2.618C3.023,2.206 3.496,1.861 4.014,1.595C4.535,1.332 5.092,1.149 5.667,1.051C6.288,0.95 6.915,0.895 7.543,0.887L8.445,0.875L111.214,0.875L112.127,0.888C112.75,0.895 113.371,0.949 113.985,1.05C114.566,1.149 115.13,1.334 115.656,1.598C116.694,2.133 117.539,2.979 118.071,4.018C118.332,4.538 118.512,5.094 118.606,5.667C118.71,6.291 118.768,6.922 118.78,7.554C118.783,7.837 118.783,8.142 118.783,8.444C118.791,8.819 118.791,9.176 118.791,9.536L118.791,30.465C118.791,30.828 118.791,31.183 118.783,31.54C118.783,31.865 118.783,32.163 118.779,32.47C118.768,33.091 118.71,33.71 118.608,34.323C118.515,34.904 118.333,35.468 118.068,35.993C117.805,36.506 117.462,36.973 117.053,37.379C116.644,37.793 116.172,38.138 115.653,38.401C115.128,38.667 114.566,38.853 113.985,38.951C113.367,39.052 112.742,39.107 112.116,39.114C111.823,39.121 111.517,39.125 111.219,39.125L110.135,39.127L8.445,39.125Z" style="fill:white;fill-rule:nonzero;"/>
            </g>
            <g id="_Group_">
                <g id="_Group_2_" serif:id="_Group_2">
                    <g id="_Group_3_" serif:id="_Group_3">
                        <path id="_Path_" d="M24.997,19.889C25.019,18.127 25.946,16.495 27.447,15.572C26.496,14.212 24.955,13.38 23.297,13.328C21.551,13.145 19.858,14.373 18.968,14.373C18.061,14.373 16.691,13.346 15.215,13.376C13.277,13.439 11.507,14.518 10.564,16.213C8.553,19.695 10.053,24.813 11.98,27.627C12.943,29.005 14.07,30.545 15.544,30.49C16.986,30.43 17.525,29.571 19.266,29.571C20.991,29.571 21.497,30.49 23,30.456C24.548,30.43 25.523,29.071 26.453,27.68C27.146,26.698 27.679,25.613 28.032,24.464C26.198,23.688 24.999,21.881 24.997,19.889Z" style="fill-rule:nonzero;"/>
                        <path id="_Path_2_" serif:id="_Path_2" d="M22.156,11.477C23,10.464 23.416,9.161 23.315,7.847C22.026,7.982 20.835,8.599 19.98,9.573C19.135,10.534 18.707,11.792 18.79,13.068C20.096,13.082 21.338,12.494 22.156,11.477Z" style="fill-rule:nonzero;"/>
                    </g>
                </g>
                <g>
                    <path d="M42.302,27.14L37.568,27.14L36.432,30.496L34.427,30.496L38.91,18.078L40.993,18.078L45.477,30.496L43.438,30.496L42.302,27.14ZM38.059,25.591L41.811,25.591L39.961,20.144L39.909,20.144L38.059,25.591Z" style="fill-rule:nonzero;"/>
                    <path d="M55.159,25.97C55.159,28.783 53.653,30.591 51.381,30.591C50.208,30.652 49.099,30.035 48.532,29.007L48.489,29.007L48.489,33.491L46.631,33.491L46.631,21.442L48.43,21.442L48.43,22.948L48.464,22.948C49.056,21.926 50.166,21.31 51.347,21.348C53.645,21.348 55.159,23.164 55.159,25.97ZM53.249,25.97C53.249,24.137 52.302,22.932 50.856,22.932C49.437,22.932 48.481,24.162 48.481,25.97C48.481,27.794 49.437,29.016 50.856,29.016C52.302,29.016 53.249,27.819 53.249,25.97L53.249,25.97Z" style="fill-rule:nonzero;"/>
                    <path d="M65.125,25.97C65.125,28.783 63.618,30.591 61.346,30.591C60.173,30.652 59.064,30.035 58.497,29.007L58.454,29.007L58.454,33.491L56.596,33.491L56.596,21.442L58.395,21.442L58.395,22.948L58.429,22.948C59.021,21.926 60.131,21.31 61.312,21.348C63.609,21.348 65.125,23.164 65.125,25.97ZM63.214,25.97C63.214,24.137 62.267,22.932 60.821,22.932C59.401,22.932 58.446,24.162 58.446,25.97C58.446,27.794 59.401,29.016 60.821,29.016C62.267,29.016 63.214,27.819 63.214,25.97Z" style="fill-rule:nonzero;"/>
                    <path d="M71.709,27.036C71.847,28.268 73.043,29.076 74.678,29.076C76.245,29.076 77.372,28.268 77.372,27.157C77.372,26.193 76.692,25.616 75.083,25.221L73.473,24.833C71.193,24.282 70.134,23.216 70.134,21.485C70.134,19.343 72.001,17.871 74.652,17.871C77.277,17.871 79.076,19.343 79.136,21.485L77.26,21.485C77.148,20.246 76.124,19.498 74.626,19.498C73.129,19.498 72.105,20.255 72.105,21.356C72.105,22.234 72.759,22.751 74.36,23.146L75.728,23.482C78.276,24.085 79.333,25.108 79.333,26.925C79.333,29.248 77.484,30.703 74.54,30.703C71.787,30.703 69.927,29.282 69.807,27.036L71.709,27.036Z" style="fill-rule:nonzero;"/>
                    <path d="M83.346,19.3L83.346,21.442L85.068,21.442L85.068,22.914L83.346,22.914L83.346,27.905C83.346,28.681 83.691,29.042 84.448,29.042C84.652,29.038 84.856,29.024 85.059,28.999L85.059,30.462C84.719,30.525 84.373,30.554 84.027,30.548C82.194,30.548 81.479,29.859 81.479,28.103L81.479,22.914L80.163,22.914L80.163,21.442L81.479,21.442L81.479,19.3L83.346,19.3Z" style="fill-rule:nonzero;"/>
                    <path d="M86.064,25.97C86.064,23.121 87.742,21.331 90.358,21.331C92.983,21.331 94.653,23.121 94.653,25.97C94.653,28.826 92.992,30.608 90.358,30.608C87.725,30.608 86.064,28.826 86.064,25.97ZM92.759,25.97C92.759,24.016 91.864,22.862 90.358,22.862C88.852,22.862 87.957,24.024 87.957,25.97C87.957,27.932 88.852,29.076 90.358,29.076C91.864,29.076 92.759,27.932 92.759,25.97L92.759,25.97Z" style="fill-rule:nonzero;"/>
                    <path d="M96.185,21.442L97.958,21.442L97.958,22.983L98.001,22.983C98.247,21.995 99.16,21.309 100.178,21.348C100.392,21.347 100.606,21.37 100.815,21.417L100.815,23.155C100.545,23.073 100.263,23.035 99.98,23.043C99.955,23.042 99.929,23.041 99.904,23.041C98.877,23.041 98.031,23.887 98.031,24.914C98.031,24.985 98.035,25.056 98.043,25.126L98.043,30.496L96.185,30.496L96.185,21.442Z" style="fill-rule:nonzero;"/>
                    <path d="M109.383,27.837C109.133,29.48 107.533,30.608 105.485,30.608C102.851,30.608 101.216,28.844 101.216,26.013C101.216,23.173 102.86,21.331 105.407,21.331C107.912,21.331 109.487,23.052 109.487,25.797L109.487,26.434L103.092,26.434L103.092,26.546C103.086,26.615 103.083,26.684 103.083,26.754C103.083,28.047 104.148,29.112 105.441,29.112C105.47,29.112 105.499,29.111 105.528,29.11C106.427,29.195 107.281,28.675 107.619,27.837L109.383,27.837ZM103.101,25.135L107.627,25.135C107.63,25.094 107.631,25.054 107.631,25.014C107.631,23.819 106.648,22.836 105.454,22.836C105.438,22.836 105.422,22.837 105.407,22.837C105.402,22.837 105.398,22.837 105.393,22.837C104.136,22.837 103.101,23.872 103.101,25.129C103.101,25.131 103.101,25.133 103.101,25.135L103.101,25.135Z" style="fill-rule:nonzero;"/>
                </g>
            </g>
        </g>
        <g id="_Group_4_" serif:id="_Group_4">
            <g>
                <path d="M36.309,13.093C36.387,13.66 36.94,14.02 37.739,14.02C38.483,14.02 39.029,13.635 39.029,13.106C39.029,12.651 38.682,12.378 37.892,12.192L37.123,12.006C36.044,11.753 35.552,11.232 35.552,10.356C35.552,9.293 36.42,8.586 37.723,8.586C38.781,8.468 39.751,9.24 39.873,10.298L38.971,10.298C38.848,9.72 38.296,9.329 37.71,9.405C36.978,9.405 36.49,9.756 36.49,10.294C36.49,10.72 36.805,10.964 37.582,11.146L38.239,11.307C39.463,11.592 39.968,12.088 39.968,12.986C39.968,14.127 39.083,14.842 37.669,14.842C36.346,14.842 35.456,14.16 35.39,13.093L36.309,13.093Z" style="fill-rule:nonzero;"/>
                <path d="M44.154,11.666C44.038,11.186 43.583,10.859 43.091,10.902C42.347,10.902 41.892,11.472 41.892,12.432C41.892,13.408 42.351,13.991 43.091,13.991C43.579,14.047 44.038,13.728 44.154,13.25L45.019,13.25C44.9,14.193 44.041,14.879 43.096,14.785C43.074,14.785 43.052,14.786 43.03,14.786C41.896,14.786 40.963,13.852 40.963,12.718C40.963,12.622 40.969,12.526 40.982,12.432C40.97,12.342 40.964,12.251 40.964,12.16C40.964,11.033 41.891,10.107 43.017,10.107C43.042,10.107 43.066,10.107 43.091,10.108C44.044,10.02 44.905,10.717 45.019,11.667L44.154,11.666Z" style="fill-rule:nonzero;"/>
                <path d="M45.9,13.424C45.9,12.614 46.504,12.146 47.575,12.08L48.795,12.01L48.795,11.621C48.795,11.146 48.48,10.877 47.873,10.877C47.377,10.877 47.033,11.059 46.935,11.377L46.074,11.377C46.165,10.604 46.893,10.108 47.914,10.108C49.043,10.108 49.68,10.67 49.68,11.621L49.68,14.698L48.824,14.698L48.824,14.065L48.754,14.065C48.464,14.526 47.946,14.797 47.401,14.772C47.355,14.777 47.308,14.779 47.261,14.779C46.516,14.779 45.903,14.169 45.9,13.424ZM48.795,13.04L48.795,12.663L47.695,12.733C47.075,12.775 46.794,12.986 46.794,13.383C46.794,13.788 47.146,14.024 47.629,14.024C47.664,14.028 47.7,14.029 47.736,14.029C48.291,14.029 48.757,13.594 48.795,13.04Z" style="fill-rule:nonzero;"/>
                <path d="M51.071,10.195L51.927,10.195L51.927,10.885L51.993,10.885C52.189,10.395 52.682,10.085 53.209,10.12C53.342,10.118 53.475,10.131 53.605,10.157L53.605,11.034C53.442,10.999 53.276,10.981 53.109,10.981C53.078,10.978 53.047,10.976 53.015,10.976C52.436,10.976 51.96,11.453 51.96,12.031C51.96,12.034 51.96,12.036 51.96,12.039L51.96,14.698L51.071,14.698L51.071,10.195Z" style="fill-rule:nonzero;"/>
                <path d="M54.538,8.863C54.537,8.852 54.537,8.84 54.537,8.829C54.537,8.513 54.797,8.253 55.113,8.253C55.429,8.253 55.689,8.513 55.689,8.829C55.689,9.145 55.429,9.405 55.113,9.405C55.104,9.405 55.095,9.405 55.085,9.405C54.787,9.405 54.541,9.162 54.538,8.863ZM54.67,10.195L55.556,10.195L55.556,14.698L54.67,14.698L54.67,10.195Z" style="fill-rule:nonzero;"/>
                <path d="M59.938,11.666C59.821,11.186 59.367,10.859 58.874,10.902C58.13,10.902 57.675,11.472 57.675,12.432C57.675,13.408 58.134,13.991 58.874,13.991C59.362,14.047 59.821,13.728 59.938,13.25L60.802,13.25C60.684,14.193 59.824,14.879 58.879,14.785C58.857,14.785 58.835,14.786 58.814,14.786C57.679,14.786 56.746,13.852 56.746,12.718C56.746,12.622 56.752,12.526 56.766,12.432C56.754,12.342 56.748,12.251 56.748,12.16C56.748,11.033 57.674,10.107 58.801,10.107C58.825,10.107 58.85,10.107 58.874,10.108C59.827,10.02 60.688,10.717 60.802,11.667L59.938,11.666Z" style="fill-rule:nonzero;"/>
                <path d="M61.684,13.424C61.684,12.614 62.287,12.146 63.358,12.08L64.578,12.01L64.578,11.621C64.578,11.146 64.264,10.877 63.656,10.877C63.16,10.877 62.816,11.059 62.718,11.377L61.857,11.377C61.948,10.604 62.676,10.108 63.697,10.108C64.826,10.108 65.463,10.67 65.463,11.621L65.463,14.698L64.607,14.698L64.607,14.065L64.537,14.065C64.247,14.526 63.729,14.797 63.185,14.772C63.138,14.777 63.091,14.779 63.044,14.779C62.3,14.779 61.687,14.169 61.684,13.424ZM64.578,13.04L64.578,12.663L63.479,12.733C62.858,12.775 62.577,12.986 62.577,13.383C62.577,13.788 62.929,14.024 63.412,14.024C63.448,14.028 63.483,14.029 63.519,14.029C64.074,14.029 64.541,13.594 64.578,13.04L64.578,13.04Z" style="fill-rule:nonzero;"/>
                <path d="M70.943,10.108C71.956,10.108 72.618,10.579 72.705,11.373L71.852,11.373C71.77,11.042 71.447,10.832 70.943,10.832C70.447,10.832 70.07,11.067 70.07,11.418C70.07,11.687 70.297,11.857 70.786,11.969L71.534,12.142C72.39,12.341 72.792,12.709 72.792,13.371C72.792,14.218 72.002,14.785 70.926,14.785C69.855,14.785 69.157,14.301 69.078,13.503L69.967,13.503C70.125,13.892 70.531,14.126 70.947,14.065C71.501,14.065 71.894,13.817 71.894,13.457C71.894,13.188 71.683,13.015 71.232,12.907L70.447,12.725C69.59,12.522 69.194,12.138 69.194,11.468C69.194,10.67 69.925,10.108 70.943,10.108Z" style="fill-rule:nonzero;"/>
                <path d="M77.785,14.698L76.928,14.698L76.928,13.982L76.858,13.982C76.625,14.513 76.075,14.838 75.498,14.785C75.463,14.787 75.429,14.788 75.394,14.788C74.592,14.788 73.932,14.128 73.932,13.326C73.932,13.257 73.937,13.187 73.947,13.118L73.947,10.195L74.836,10.195L74.836,12.887C74.836,13.614 75.129,13.962 75.783,13.962C75.815,13.965 75.847,13.966 75.879,13.966C76.44,13.966 76.902,13.505 76.902,12.944C76.902,12.906 76.899,12.867 76.895,12.829L76.895,10.195L77.785,10.195L77.785,14.698Z" style="fill-rule:nonzero;"/>
            </g>
        </g>
    </g>
</svg>
