<?xml version="1.0" encoding="UTF-8" standalone="no"?>
<!DOCTYPE svg PUBLIC "-//W3C//DTD SVG 1.1//EN" "http://www.w3.org/Graphics/SVG/1.1/DTD/svg11.dtd">
<svg width="100%" height="100%" viewBox="0 0 127 40" version="1.1" xmlns="http://www.w3.org/2000/svg" xmlns:xlink="http://www.w3.org/1999/xlink" xml:space="preserve" xmlns:serif="http://www.serif.com/" style="fill-rule:evenodd;clip-rule:evenodd;stroke-linejoin:round;stroke-miterlimit:2;">
    <g transform="matrix(1,0,0,1,-0.0005084,0)">
        <g>
            <g>
                <g>
                    <g>
                        <path d="M116.965,0L9.535,0C9.168,0 8.806,0 8.44,0.002C8.134,0.004 7.831,0.01 7.522,0.015C6.856,0.031 6.182,0.072 5.518,0.191C4.848,0.309 4.226,0.509 3.617,0.818C3.018,1.125 2.471,1.523 1.998,1.997C1.52,2.471 1.123,3.02 0.82,3.618C0.509,4.227 0.312,4.852 0.195,5.521C0.074,6.184 0.033,6.854 0.016,7.523C0.006,7.83 0.005,8.138 0.001,8.444L0.001,31.559C0.005,31.869 0.006,32.17 0.016,32.48C0.033,33.15 0.074,33.82 0.195,34.482C0.312,35.152 0.509,35.78 0.82,36.387C1.123,36.982 1.52,37.531 1.998,38.001C2.471,38.478 3.018,38.876 3.617,39.18C4.226,39.492 4.848,39.689 5.518,39.811C6.182,39.93 6.856,39.969 7.522,39.987C7.831,39.994 8.134,39.998 8.44,39.998C8.806,40 9.168,40 9.535,40L116.965,40C117.324,40 117.689,40 118.049,39.998C118.353,39.998 118.666,39.994 118.971,39.987C119.641,39.969 120.312,39.93 120.971,39.811C121.641,39.689 122.264,39.492 122.879,39.18C123.476,38.876 124.023,38.479 124.496,38.001C124.973,37.531 125.369,36.982 125.678,36.387C125.984,35.78 126.184,35.152 126.297,34.482C126.42,33.82 126.459,33.15 126.482,32.48C126.486,32.17 126.486,31.869 126.486,31.559C126.494,31.195 126.494,30.834 126.494,30.465L126.494,9.536C126.494,9.17 126.494,8.807 126.486,8.444C126.486,8.138 126.486,7.83 126.482,7.523C126.459,6.854 126.42,6.184 126.297,5.521C126.184,4.852 125.984,4.227 125.678,3.618C125.369,3.02 124.973,2.471 124.496,1.997C124.023,1.523 123.476,1.125 122.879,0.818C122.264,0.509 121.641,0.309 120.971,0.191C120.312,0.072 119.641,0.031 118.971,0.015C118.666,0.01 118.353,0.004 118.049,0.002C117.689,0 117.324,0 116.965,0Z" style="fill-rule:nonzero;"/>
                        <path d="M8.445,39.125C8.141,39.125 7.843,39.121 7.541,39.114C6.982,39.099 6.319,39.067 5.672,38.951C5.062,38.841 4.519,38.661 4.015,38.403C3.494,38.139 3.025,37.797 2.618,37.387C2.204,36.98 1.864,36.514 1.598,35.99C1.338,35.485 1.161,34.943 1.055,34.333C0.933,33.66 0.901,32.978 0.888,32.458C0.882,32.247 0.874,31.545 0.874,31.545L0.874,8.444C0.874,8.444 0.882,7.753 0.888,7.55C0.901,7.026 0.933,6.344 1.054,5.678C1.161,5.064 1.338,4.522 1.597,4.016C1.863,3.491 2.204,3.022 2.612,2.618C3.026,2.204 3.497,1.861 4.015,1.595C4.528,1.334 5.07,1.156 5.668,1.051C6.341,0.931 7.024,0.9 7.543,0.887L8.446,0.875L118.044,0.875L118.957,0.888C119.47,0.9 120.152,0.931 120.815,1.05C121.418,1.156 121.963,1.335 122.486,1.598C122.999,1.861 123.469,2.204 123.878,2.614C124.287,3.02 124.63,3.492 124.901,4.018C125.159,4.529 125.335,5.071 125.436,5.667C125.553,6.298 125.589,6.946 125.61,7.554C125.613,7.837 125.613,8.142 125.613,8.444C125.621,8.819 125.621,9.176 125.621,9.536L125.621,30.465C125.621,30.828 125.621,31.183 125.613,31.54C125.613,31.865 125.613,32.163 125.609,32.47C125.589,33.059 125.553,33.706 125.438,34.323C125.335,34.936 125.159,35.478 124.898,35.993C124.629,36.513 124.286,36.982 123.883,37.379C123.47,37.797 123.001,38.138 122.483,38.401C121.965,38.665 121.435,38.84 120.815,38.951C120.175,39.067 119.512,39.099 118.946,39.114C118.653,39.121 118.347,39.125 118.049,39.125L116.965,39.127L8.445,39.125Z" style="fill:white;fill-rule:nonzero;"/>
                    </g>
                </g>
            </g>
            <g id="XMLID_2_">
                <g id="XMLID_1_">
                    <g id="XMLID_9_">
                        <path id="XMLID_11_" d="M24.997,19.889C24.971,17.029 27.339,15.637 27.448,15.572C26.107,13.616 24.028,13.349 23.297,13.328C21.551,13.145 19.858,14.373 18.968,14.373C18.061,14.373 16.691,13.346 15.216,13.376C13.317,13.406 11.539,14.505 10.565,16.213C8.553,19.695 10.054,24.813 11.98,27.627C12.944,29.005 14.07,30.545 15.544,30.49C16.987,30.43 17.526,29.57 19.267,29.57C20.992,29.57 21.497,30.49 23.001,30.456C24.549,30.43 25.524,29.071 26.454,27.68C27.568,26.1 28.015,24.544 28.033,24.464C27.997,24.452 25.027,23.319 24.997,19.889Z" style="fill-rule:nonzero;"/>
                        <path id="XMLID_10_" d="M22.157,11.477C22.932,10.506 23.463,9.187 23.316,7.847C22.193,7.897 20.788,8.623 19.98,9.573C19.265,10.409 18.626,11.78 18.791,13.068C20.052,13.162 21.347,12.432 22.157,11.477Z" style="fill-rule:nonzero;"/>
                    </g>
                </g>
            </g>
        </g>
        <g id="XMLID_3_">
            <g>
                <path d="M37.571,8.735C38.737,8.735 39.539,9.541 39.539,10.724C39.539,11.89 38.712,12.692 37.542,12.692L36.161,12.692L36.161,14.702L35.234,14.702L35.234,8.735L37.571,8.735ZM36.161,11.877L37.327,11.877C38.125,11.877 38.592,11.464 38.592,10.724C38.592,9.967 38.141,9.553 37.327,9.553L36.161,9.553L36.161,11.877Z" style="fill-rule:nonzero;"/>
                <path d="M40.752,10.199L41.608,10.199L41.608,10.889L41.674,10.889C41.802,10.447 42.302,10.124 42.89,10.124C43.022,10.124 43.192,10.136 43.287,10.161L43.287,11.038C43.212,11.013 42.948,10.984 42.791,10.984C42.117,10.984 41.641,11.41 41.641,12.043L41.641,14.702L40.752,14.702L40.752,10.199Z" style="fill-rule:nonzero;"/>
                <path d="M47.96,13.486C47.758,14.292 47.039,14.789 46.009,14.789C44.719,14.789 43.929,13.904 43.929,12.464C43.929,11.025 44.736,10.112 46.005,10.112C47.258,10.112 48.014,10.968 48.014,12.382L48.014,12.692L44.835,12.692L44.835,12.742C44.864,13.531 45.323,14.032 46.034,14.032C46.572,14.032 46.94,13.837 47.105,13.486L47.96,13.486ZM44.835,12.035L47.109,12.035C47.088,11.328 46.659,10.868 46.001,10.868C45.343,10.868 44.884,11.332 44.835,12.035ZM45.471,9.446L46.509,8.023L47.551,8.023L46.389,9.446L45.471,9.446Z" style="fill-rule:nonzero;"/>
                <path d="M52.156,11.67C52.052,11.232 51.688,10.906 51.092,10.906C50.348,10.906 49.893,11.476 49.893,12.436C49.893,13.412 50.352,13.995 51.092,13.995C51.655,13.995 52.04,13.738 52.156,13.254L53.02,13.254C52.904,14.16 52.21,14.789 51.097,14.789C49.786,14.789 48.984,13.904 48.984,12.436C48.984,10.993 49.782,10.112 51.092,10.112C52.221,10.112 52.904,10.769 53.02,11.67L52.156,11.67Z" style="fill-rule:nonzero;"/>
                <path d="M53.935,12.448C53.935,10.997 54.746,10.112 56.06,10.112C57.372,10.112 58.182,10.997 58.182,12.448C58.182,13.908 57.376,14.789 56.06,14.789C54.742,14.789 53.935,13.908 53.935,12.448ZM57.268,12.448C57.268,11.472 56.83,10.901 56.06,10.901C55.288,10.901 54.853,11.472 54.853,12.448C54.853,13.432 55.288,13.999 56.06,13.999C56.83,13.999 57.268,13.428 57.268,12.448Z" style="fill-rule:nonzero;"/>
                <path d="M59.375,10.199L60.23,10.199L60.23,10.922L60.296,10.922C60.495,10.414 60.95,10.112 61.549,10.112C62.166,10.112 62.591,10.43 62.79,10.922L62.86,10.922C63.087,10.43 63.604,10.112 64.229,10.112C65.139,10.112 65.668,10.662 65.668,11.6L65.668,14.702L64.779,14.702L64.779,11.832C64.779,11.224 64.489,10.926 63.906,10.926C63.332,10.926 62.956,11.34 62.956,11.869L62.956,14.702L62.083,14.702L62.083,11.745C62.083,11.236 61.744,10.926 61.214,10.926C60.672,10.926 60.263,11.369 60.263,11.948L60.263,14.702L59.375,14.702L59.375,10.199Z" style="fill-rule:nonzero;"/>
                <path d="M67.042,10.199L67.897,10.199L67.897,10.922L67.964,10.922C68.162,10.414 68.617,10.112 69.217,10.112C69.833,10.112 70.259,10.43 70.457,10.922L70.527,10.922C70.755,10.43 71.272,10.112 71.897,10.112C72.806,10.112 73.335,10.662 73.335,11.6L73.335,14.702L72.446,14.702L72.446,11.832C72.446,11.224 72.156,10.926 71.573,10.926C70.999,10.926 70.623,11.34 70.623,11.869L70.623,14.702L69.75,14.702L69.75,11.745C69.75,11.236 69.411,10.926 68.882,10.926C68.34,10.926 67.931,11.369 67.931,11.948L67.931,14.702L67.042,14.702L67.042,10.199Z" style="fill-rule:nonzero;"/>
                <path d="M74.452,13.428C74.452,12.618 75.056,12.15 76.127,12.084L77.347,12.014L77.347,11.625C77.347,11.149 77.032,10.881 76.425,10.881C75.929,10.881 75.585,11.063 75.486,11.381L74.626,11.381C74.717,10.608 75.444,10.112 76.466,10.112C77.595,10.112 78.231,10.674 78.231,11.625L78.231,14.702L77.376,14.702L77.376,14.069L77.306,14.069C77.037,14.52 76.545,14.776 75.953,14.776C75.085,14.776 74.452,14.251 74.452,13.428ZM77.347,13.043L77.347,12.667L76.247,12.737C75.627,12.779 75.346,12.99 75.346,13.387C75.346,13.792 75.697,14.028 76.181,14.028C76.851,14.028 77.347,13.602 77.347,13.043Z" style="fill-rule:nonzero;"/>
                <path d="M79.623,10.199L80.479,10.199L80.479,10.914L80.545,10.914C80.764,10.414 81.211,10.112 81.889,10.112C82.894,10.112 83.447,10.715 83.447,11.787L83.447,14.702L82.559,14.702L82.559,12.01C82.559,11.286 82.244,10.926 81.587,10.926C80.93,10.926 80.512,11.365 80.512,12.067L80.512,14.702L79.623,14.702L79.623,10.199Z" style="fill-rule:nonzero;"/>
                <path d="M84.599,12.448C84.599,11.025 85.33,10.124 86.468,10.124C87.084,10.124 87.605,10.417 87.849,10.914L87.915,10.914L87.915,8.441L88.804,8.441L88.804,14.702L87.952,14.702L87.952,13.99L87.882,13.99C87.613,14.482 87.088,14.776 86.468,14.776C85.322,14.776 84.599,13.875 84.599,12.448ZM85.517,12.448C85.517,13.403 85.967,13.978 86.72,13.978C87.469,13.978 87.932,13.395 87.932,12.452C87.932,11.514 87.464,10.922 86.72,10.922C85.972,10.922 85.517,11.501 85.517,12.448Z" style="fill-rule:nonzero;"/>
                <path d="M94.069,13.486C93.867,14.292 93.147,14.789 92.118,14.789C90.828,14.789 90.038,13.904 90.038,12.464C90.038,11.025 90.845,10.112 92.114,10.112C93.367,10.112 94.123,10.968 94.123,12.382L94.123,12.692L90.943,12.692L90.943,12.742C90.973,13.531 91.432,14.032 92.143,14.032C92.681,14.032 93.049,13.837 93.214,13.486L94.069,13.486ZM90.943,12.035L93.218,12.035C93.197,11.328 92.768,10.868 92.109,10.868C91.452,10.868 90.993,11.332 90.943,12.035Z" style="fill-rule:nonzero;"/>
                <path d="M95.317,10.199L96.173,10.199L96.173,10.889L96.239,10.889C96.367,10.447 96.867,10.124 97.455,10.124C97.587,10.124 97.757,10.136 97.852,10.161L97.852,11.038C97.777,11.013 97.513,10.984 97.356,10.984C96.682,10.984 96.206,11.41 96.206,12.043L96.206,14.702L95.317,14.702L95.317,10.199Z" style="fill-rule:nonzero;"/>
                <path d="M102.922,10.112C103.935,10.112 104.597,10.583 104.684,11.377L103.831,11.377C103.749,11.046 103.426,10.835 102.922,10.835C102.426,10.835 102.049,11.071 102.049,11.422C102.049,11.691 102.276,11.861 102.765,11.973L103.513,12.146C104.369,12.345 104.771,12.713 104.771,13.375C104.771,14.222 103.981,14.789 102.905,14.789C101.834,14.789 101.136,14.305 101.057,13.507L101.946,13.507C102.058,13.854 102.389,14.069 102.926,14.069C103.48,14.069 103.873,13.821 103.873,13.461C103.873,13.192 103.662,13.019 103.211,12.911L102.426,12.729C101.569,12.526 101.173,12.142 101.173,11.472C101.173,10.674 101.904,10.112 102.922,10.112Z" style="fill-rule:nonzero;"/>
                <path d="M109.764,14.702L108.907,14.702L108.907,13.986L108.837,13.986C108.618,14.499 108.159,14.789 107.477,14.789C106.481,14.789 105.926,14.181 105.926,13.122L105.926,10.199L106.815,10.199L106.815,12.891C106.815,13.618 107.108,13.966 107.762,13.966C108.481,13.966 108.874,13.54 108.874,12.833L108.874,10.199L109.764,10.199L109.764,14.702Z" style="fill-rule:nonzero;"/>
                <path d="M111.18,10.199L112.035,10.199L112.035,10.889L112.102,10.889C112.23,10.447 112.73,10.124 113.317,10.124C113.449,10.124 113.619,10.136 113.714,10.161L113.714,11.038C113.64,11.013 113.375,10.984 113.218,10.984C112.544,10.984 112.068,11.41 112.068,12.043L112.068,14.702L111.18,14.702L111.18,10.199Z" style="fill-rule:nonzero;"/>
            </g>
        </g>
        <g>
            <rect x="35.193" y="18.078" width="1.859" height="12.418" style="fill-rule:nonzero;"/>
            <path d="M39.293,22.622L40.308,18.078L42.115,18.078L40.884,22.622L39.293,22.622Z" style="fill-rule:nonzero;"/>
            <path d="M49.14,27.14L44.407,27.14L43.27,30.496L41.265,30.496L45.749,18.078L47.832,18.078L52.315,30.496L50.276,30.496L49.14,27.14ZM44.897,25.591L48.649,25.591L46.799,20.144L46.748,20.144L44.897,25.591Z" style="fill-rule:nonzero;"/>
            <path d="M61.998,25.97C61.998,28.783 60.492,30.591 58.219,30.591C56.929,30.591 55.905,30.014 55.371,29.007L55.328,29.007L55.328,33.491L53.469,33.491L53.469,21.442L55.268,21.442L55.268,22.948L55.302,22.948C55.819,21.977 56.92,21.348 58.185,21.348C60.483,21.348 61.998,23.164 61.998,25.97ZM60.087,25.97C60.087,24.137 59.14,22.932 57.695,22.932C56.275,22.932 55.32,24.162 55.32,25.97C55.32,27.794 56.275,29.016 57.695,29.016C59.14,29.016 60.087,27.819 60.087,25.97Z" style="fill-rule:nonzero;"/>
            <path d="M71.963,25.97C71.963,28.783 70.457,30.591 68.185,30.591C66.895,30.591 65.87,30.014 65.336,29.007L65.293,29.007L65.293,33.491L63.434,33.491L63.434,21.442L65.233,21.442L65.233,22.948L65.268,22.948C65.784,21.977 66.886,21.348 68.15,21.348C70.448,21.348 71.963,23.164 71.963,25.97ZM70.053,25.97C70.053,24.137 69.106,22.932 67.66,22.932C66.24,22.932 65.285,24.162 65.285,25.97C65.285,27.794 66.24,29.016 67.66,29.016C69.106,29.016 70.053,27.819 70.053,25.97Z" style="fill-rule:nonzero;"/>
            <path d="M78.549,27.036C78.687,28.268 79.883,29.076 81.518,29.076C83.084,29.076 84.211,28.268 84.211,27.157C84.211,26.193 83.531,25.616 81.922,25.221L80.313,24.833C78.032,24.282 76.974,23.216 76.974,21.485C76.974,19.343 78.841,17.871 81.492,17.871C84.116,17.871 85.915,19.343 85.976,21.485L84.1,21.485C83.987,20.246 82.963,19.498 81.466,19.498C79.969,19.498 78.944,20.255 78.944,21.356C78.944,22.234 79.599,22.751 81.199,23.146L82.567,23.482C85.115,24.085 86.174,25.108 86.174,26.925C86.174,29.248 84.323,30.703 81.38,30.703C78.626,30.703 76.767,29.282 76.647,27.036L78.549,27.036Z" style="fill-rule:nonzero;"/>
            <path d="M90.185,19.3L90.185,21.442L91.906,21.442L91.906,22.914L90.185,22.914L90.185,27.905C90.185,28.681 90.529,29.042 91.286,29.042C91.476,29.042 91.777,29.016 91.897,28.999L91.897,30.462C91.691,30.514 91.278,30.548 90.865,30.548C89.032,30.548 88.317,29.859 88.317,28.104L88.317,22.914L87.001,22.914L87.001,21.442L88.317,21.442L88.317,19.3L90.185,19.3Z" style="fill-rule:nonzero;"/>
            <path d="M92.902,25.97C92.902,23.121 94.58,21.331 97.196,21.331C99.821,21.331 101.491,23.121 101.491,25.97C101.491,28.826 99.83,30.608 97.196,30.608C94.564,30.608 92.902,28.826 92.902,25.97ZM99.598,25.97C99.598,24.016 98.702,22.862 97.196,22.862C95.69,22.862 94.795,24.024 94.795,25.97C94.795,27.932 95.69,29.076 97.196,29.076C98.702,29.076 99.598,27.932 99.598,25.97Z" style="fill-rule:nonzero;"/>
            <path d="M103.023,21.442L104.796,21.442L104.796,22.983L104.839,22.983C105.123,21.959 105.949,21.348 107.017,21.348C107.283,21.348 107.507,21.383 107.653,21.417L107.653,23.155C107.507,23.095 107.18,23.043 106.818,23.043C105.622,23.043 104.882,23.853 104.882,25.126L104.882,30.496L103.023,30.496L103.023,21.442Z" style="fill-rule:nonzero;"/>
            <path d="M116.222,27.837C115.972,29.48 114.371,30.608 112.323,30.608C109.689,30.608 108.055,28.844 108.055,26.013C108.055,23.173 109.698,21.331 112.245,21.331C114.75,21.331 116.325,23.052 116.325,25.797L116.325,26.434L109.931,26.434L109.931,26.546C109.931,28.095 110.903,29.11 112.366,29.11C113.398,29.11 114.208,28.62 114.457,27.837L116.222,27.837ZM109.939,25.135L114.466,25.135C114.423,23.749 113.536,22.837 112.245,22.837C110.963,22.837 110.034,23.767 109.939,25.135Z" style="fill-rule:nonzero;"/>
        </g>
    </g>
</svg>
