<?xml version="1.0" encoding="UTF-8" standalone="no"?>
<!DOCTYPE svg PUBLIC "-//W3C//DTD SVG 1.1//EN" "http://www.w3.org/Graphics/SVG/1.1/DTD/svg11.dtd">
<svg width="100%" height="100%" viewBox="0 0 135 40" version="1.1" xmlns="http://www.w3.org/2000/svg" xmlns:xlink="http://www.w3.org/1999/xlink" xml:space="preserve" xmlns:serif="http://www.serif.com/" style="fill-rule:evenodd;clip-rule:evenodd;stroke-linejoin:round;stroke-miterlimit:2;">
    <g transform="matrix(1,0,0,1,0,-1)">
        <g>
            <path d="M130,41L5,41C2.25,41 0,38.75 0,36L0,6C0,3.25 2.25,1 5,1L130,1C132.75,1 135,3.25 135,6L135,36C135,38.75 132.75,41 130,41Z" style="fill:rgb(3,4,4);fill-rule:nonzero;"/>
            <path d="M130,1L5,1C2.25,1 0,3.25 0,6L0,36C0,38.75 2.25,41 5,41L130,41C132.75,41 135,38.75 135,36L135,6C135,3.25 132.75,1 130,1ZM130,1.8C132.316,1.8 134.2,3.684 134.2,6L134.2,36C134.2,38.316 132.316,40.201 130,40.201L5,40.201C2.684,40.201 0.8,38.316 0.8,36L0.8,6C0.8,3.684 2.684,1.8 5,1.8L130,1.8Z" style="fill:rgb(167,165,166);fill-rule:nonzero;"/>
            <path d="M106.936,31.001L108.802,31.001L108.802,18.499L106.936,18.499L106.936,31.001ZM123.743,23.002L121.604,28.422L121.54,28.422L119.32,23.002L117.31,23.002L120.639,30.578L118.741,34.791L120.687,34.791L125.818,23.002L123.743,23.002ZM113.16,29.58C112.549,29.58 111.697,29.275 111.697,28.519C111.697,27.554 112.758,27.184 113.675,27.184C114.495,27.184 114.881,27.361 115.38,27.602C115.235,28.76 114.238,29.58 113.16,29.58ZM113.386,22.729C112.035,22.729 110.635,23.324 110.056,24.643L111.713,25.334C112.067,24.643 112.726,24.418 113.418,24.418C114.383,24.418 115.364,24.997 115.38,26.026L115.38,26.155C115.042,25.962 114.318,25.672 113.434,25.672C111.649,25.672 109.831,26.653 109.831,28.487C109.831,30.159 111.295,31.237 112.935,31.237C114.19,31.237 114.881,30.674 115.316,30.015L115.38,30.015L115.38,30.98L117.181,30.98L117.181,26.187C117.181,23.967 115.525,22.729 113.386,22.729ZM101.854,24.524L99.2,24.524L99.2,20.239L101.854,20.239C103.249,20.239 104.041,21.394 104.041,22.382C104.041,23.351 103.249,24.524 101.854,24.524ZM101.806,18.499L97.334,18.499L97.334,31.001L99.2,31.001L99.2,26.264L101.806,26.264C103.874,26.264 105.907,24.767 105.907,22.382C105.907,19.996 103.874,18.499 101.806,18.499ZM77.424,29.583C76.136,29.583 75.056,28.503 75.056,27.021C75.056,25.523 76.136,24.428 77.424,24.428C78.697,24.428 79.696,25.523 79.696,27.021C79.696,28.503 78.697,29.583 77.424,29.583ZM79.567,23.702L79.503,23.702C79.084,23.203 78.278,22.752 77.263,22.752C75.137,22.752 73.187,24.621 73.187,27.021C73.187,29.406 75.137,31.258 77.263,31.258C78.278,31.258 79.084,30.807 79.503,30.292L79.567,30.292L79.567,30.904C79.567,32.531 78.697,33.401 77.295,33.401C76.152,33.401 75.443,32.579 75.153,31.887L73.526,32.563C73.993,33.691 75.233,35.076 77.295,35.076C79.486,35.076 81.339,33.788 81.339,30.646L81.339,23.01L79.567,23.01L79.567,23.702ZM82.628,31.001L84.497,31.001L84.497,18.499L82.628,18.499L82.628,31.001ZM87.252,26.876C87.203,25.233 88.524,24.395 89.475,24.395C90.216,24.395 90.844,24.766 91.054,25.297L87.252,26.876ZM93.051,25.459C92.697,24.508 91.618,22.752 89.41,22.752C87.219,22.752 85.399,24.476 85.399,27.005C85.399,29.39 87.203,31.258 89.62,31.258C91.569,31.258 92.697,30.066 93.164,29.373L91.714,28.407C91.231,29.116 90.57,29.583 89.62,29.583C88.669,29.583 87.993,29.148 87.558,28.294L93.245,25.942L93.051,25.459ZM47.743,24.057L47.743,25.861L52.061,25.861C51.932,26.876 51.594,27.617 51.078,28.133C50.45,28.761 49.467,29.454 47.743,29.454C45.085,29.454 43.007,27.311 43.007,24.653C43.007,21.995 45.085,19.852 47.743,19.852C49.177,19.852 50.224,20.416 50.998,21.141L52.27,19.868C51.191,18.837 49.757,18.048 47.743,18.048C44.102,18.048 41.041,21.012 41.041,24.653C41.041,28.294 44.102,31.258 47.743,31.258C49.709,31.258 51.191,30.614 52.351,29.406C53.543,28.213 53.914,26.538 53.914,25.185C53.914,24.766 53.881,24.379 53.817,24.057L47.743,24.057ZM58.822,29.583C57.533,29.583 56.421,28.519 56.421,27.005C56.421,25.475 57.533,24.428 58.822,24.428C60.111,24.428 61.222,25.475 61.222,27.005C61.222,28.519 60.111,29.583 58.822,29.583ZM58.822,22.752C56.47,22.752 54.553,24.54 54.553,27.005C54.553,29.454 56.47,31.258 58.822,31.258C61.174,31.258 63.091,29.454 63.091,27.005C63.091,24.54 61.174,22.752 58.822,22.752ZM68.135,29.583C66.847,29.583 65.735,28.519 65.735,27.005C65.735,25.475 66.847,24.428 68.135,24.428C69.424,24.428 70.536,25.475 70.536,27.005C70.536,28.519 69.424,29.583 68.135,29.583ZM68.135,22.752C65.783,22.752 63.866,24.54 63.866,27.005C63.866,29.454 65.783,31.258 68.135,31.258C70.487,31.258 72.405,29.454 72.405,27.005C72.405,24.54 70.487,22.752 68.135,22.752Z" style="fill:white;fill-rule:nonzero;"/>
            <path d="M20.717,20.424L10.07,31.724C10.071,31.727 10.071,31.729 10.072,31.731C10.399,32.958 11.519,33.862 12.849,33.862C13.381,33.862 13.88,33.718 14.308,33.466L14.342,33.446L26.326,26.531L20.717,20.424Z" style="fill:rgb(235,67,53);fill-rule:nonzero;"/>
            <path d="M31.488,18.5L31.477,18.494L26.304,15.494L20.475,20.681L26.324,26.529L31.471,23.56C32.373,23.073 32.985,22.122 32.985,21.025C32.985,19.935 32.381,18.989 31.488,18.5Z" style="fill:rgb(250,188,19);fill-rule:nonzero;"/>
            <path d="M10.07,10.278C10.006,10.514 9.972,10.761 9.972,11.018L9.972,30.985C9.972,31.241 10.005,31.49 10.07,31.724L21.083,20.714L10.07,10.278Z" style="fill:rgb(84,125,191);fill-rule:nonzero;"/>
            <path d="M20.795,21.001L26.305,15.492L14.335,8.552C13.9,8.292 13.393,8.141 12.849,8.141C11.519,8.141 10.397,9.046 10.07,10.275L10.07,10.278L20.795,21.001Z" style="fill:rgb(48,168,81);fill-rule:nonzero;"/>
            <path d="M41.784,14.134L43.776,14.134C44.42,14.134 44.985,14.004 45.464,13.743C45.942,13.482 46.308,13.116 46.569,12.638C46.821,12.168 46.952,11.629 46.952,11.02C46.952,10.411 46.821,9.871 46.569,9.393C46.308,8.923 45.942,8.557 45.464,8.296C44.985,8.035 44.42,7.905 43.776,7.905L41.784,7.905L41.784,14.134ZM42.741,13.229L42.741,8.81L43.75,8.81C44.455,8.81 45.012,9.001 45.403,9.393C45.795,9.784 45.986,10.332 45.986,11.02C45.986,11.707 45.795,12.246 45.403,12.638C45.012,13.029 44.455,13.229 43.75,13.229L42.741,13.229Z" style="fill:white;fill-rule:nonzero;"/>
            <rect x="48.225" y="7.905" width="0.957" height="6.229" style="fill:white;fill-rule:nonzero;"/>
            <path d="M52.59,14.273C52.929,14.273 53.259,14.204 53.581,14.073C53.903,13.943 54.164,13.734 54.373,13.456C54.573,13.186 54.678,12.847 54.678,12.438C54.678,11.942 54.53,11.55 54.243,11.254C53.955,10.959 53.538,10.715 53.007,10.532L52.607,10.393C52.233,10.263 51.963,10.132 51.789,9.984C51.606,9.845 51.519,9.671 51.519,9.454C51.519,9.219 51.615,9.027 51.815,8.879C52.015,8.731 52.25,8.653 52.537,8.653C52.833,8.653 53.077,8.731 53.259,8.879C53.442,9.027 53.564,9.21 53.625,9.419L54.486,9.053C54.373,8.723 54.147,8.427 53.825,8.157C53.503,7.896 53.068,7.766 52.529,7.766C52.155,7.766 51.815,7.844 51.519,7.992C51.215,8.14 50.989,8.349 50.823,8.61C50.658,8.871 50.571,9.158 50.571,9.462C50.571,9.906 50.71,10.263 50.997,10.532C51.276,10.802 51.624,11.02 52.05,11.167L52.442,11.307C52.911,11.472 53.242,11.637 53.433,11.803C53.625,11.977 53.721,12.194 53.721,12.455C53.721,12.742 53.616,12.96 53.399,13.125C53.181,13.29 52.911,13.369 52.598,13.369C52.259,13.369 51.972,13.255 51.737,13.038C51.502,12.82 51.337,12.533 51.241,12.185L50.336,12.551C50.502,13.099 50.789,13.516 51.198,13.821C51.606,14.125 52.076,14.273 52.59,14.273Z" style="fill:white;fill-rule:nonzero;"/>
            <path d="M55.947,14.134L56.904,14.134L56.904,11.716L58.087,11.716C58.461,11.716 58.801,11.637 59.114,11.472C59.418,11.307 59.671,11.08 59.853,10.793C60.036,10.506 60.123,10.176 60.123,9.81C60.123,9.445 60.036,9.114 59.853,8.827C59.671,8.54 59.418,8.314 59.114,8.149C58.801,7.983 58.461,7.905 58.087,7.905L55.947,7.905L55.947,14.134ZM56.904,10.811L56.904,8.81L58.113,8.81C58.435,8.81 58.687,8.905 58.888,9.106C59.079,9.306 59.175,9.541 59.175,9.81C59.175,10.08 59.079,10.306 58.888,10.506C58.687,10.706 58.435,10.811 58.113,10.811L56.904,10.811Z" style="fill:white;fill-rule:nonzero;"/>
            <path d="M64.165,14.273C64.765,14.273 65.314,14.125 65.809,13.838C66.297,13.551 66.679,13.151 66.967,12.655C67.245,12.159 67.384,11.62 67.384,11.02C67.384,10.419 67.245,9.871 66.967,9.375C66.679,8.879 66.297,8.488 65.809,8.201C65.314,7.914 64.765,7.766 64.165,7.766C63.565,7.766 63.017,7.914 62.521,8.201C62.025,8.488 61.642,8.879 61.364,9.375C61.077,9.871 60.937,10.419 60.937,11.02C60.937,11.62 61.077,12.159 61.364,12.655C61.642,13.151 62.025,13.551 62.521,13.838C63.017,14.125 63.565,14.273 64.165,14.273ZM64.165,13.369C63.748,13.369 63.365,13.264 63.025,13.064C62.677,12.864 62.408,12.586 62.208,12.229C62.008,11.872 61.903,11.472 61.903,11.02C61.903,10.567 62.008,10.158 62.208,9.802C62.408,9.445 62.677,9.166 63.025,8.966C63.365,8.766 63.748,8.671 64.165,8.671C64.583,8.671 64.966,8.766 65.314,8.966C65.653,9.166 65.931,9.445 66.131,9.802C66.331,10.158 66.427,10.567 66.427,11.02C66.427,11.472 66.331,11.872 66.131,12.229C65.931,12.586 65.653,12.864 65.314,13.064C64.966,13.264 64.583,13.369 64.165,13.369Z" style="fill:white;fill-rule:nonzero;"/>
            <path d="M68.65,14.134L69.598,14.134L69.598,10.524L69.546,9.323L69.598,9.323L72.556,14.134L73.548,14.134L73.548,7.905L72.6,7.905L72.6,11.281L72.652,12.481L72.6,12.481L69.781,7.905L68.65,7.905L68.65,14.134Z" style="fill:white;fill-rule:nonzero;"/>
            <rect x="75.143" y="7.905" width="0.957" height="6.229" style="fill:white;fill-rule:nonzero;"/>
            <path d="M77.687,14.134L80.123,14.134C80.48,14.134 80.802,14.056 81.106,13.908C81.402,13.76 81.637,13.56 81.82,13.29C81.994,13.029 82.081,12.725 82.081,12.385C82.081,12.037 81.985,11.733 81.794,11.481C81.602,11.228 81.341,11.046 81.019,10.933L81.019,10.889C81.272,10.767 81.48,10.593 81.637,10.358C81.785,10.132 81.863,9.862 81.863,9.558C81.863,9.253 81.785,8.966 81.62,8.714C81.454,8.462 81.228,8.27 80.941,8.122C80.654,7.975 80.349,7.905 80.019,7.905L77.687,7.905L77.687,14.134ZM78.644,10.524L78.644,8.784L80.01,8.784C80.28,8.784 80.506,8.871 80.68,9.036C80.845,9.21 80.932,9.41 80.932,9.645C80.932,9.88 80.845,10.08 80.671,10.254C80.497,10.437 80.262,10.524 79.975,10.524L78.644,10.524ZM78.644,13.247L78.644,11.376L80.088,11.376C80.402,11.376 80.654,11.472 80.845,11.655C81.028,11.837 81.124,12.064 81.124,12.316C81.124,12.568 81.037,12.786 80.854,12.968C80.671,13.151 80.428,13.247 80.123,13.247L78.644,13.247Z" style="fill:white;fill-rule:nonzero;"/>
            <path d="M83.35,14.134L86.987,14.134L86.987,13.229L84.307,13.229L84.307,7.905L83.35,7.905L83.35,14.134Z" style="fill:white;fill-rule:nonzero;"/>
            <path d="M88.003,14.134L91.778,14.134L91.778,13.229L88.96,13.229L88.96,11.472L91.5,11.472L91.5,10.567L88.96,10.567L88.96,8.81L91.778,8.81L91.778,7.905L88.003,7.905L88.003,14.134Z" style="fill:white;fill-rule:nonzero;"/>
            <path d="M96.816,14.273C97.155,14.273 97.486,14.204 97.808,14.073C98.13,13.943 98.391,13.734 98.6,13.456C98.8,13.186 98.904,12.847 98.904,12.438C98.904,11.942 98.756,11.55 98.469,11.254C98.182,10.959 97.764,10.715 97.234,10.532L96.833,10.393C96.459,10.263 96.19,10.132 96.016,9.984C95.833,9.845 95.746,9.671 95.746,9.454C95.746,9.219 95.842,9.027 96.042,8.879C96.242,8.731 96.477,8.653 96.764,8.653C97.06,8.653 97.303,8.731 97.486,8.879C97.669,9.027 97.79,9.21 97.851,9.419L98.713,9.053C98.6,8.723 98.373,8.427 98.051,8.157C97.73,7.896 97.295,7.766 96.755,7.766C96.381,7.766 96.042,7.844 95.746,7.992C95.441,8.14 95.215,8.349 95.05,8.61C94.885,8.871 94.798,9.158 94.798,9.462C94.798,9.906 94.937,10.263 95.224,10.532C95.502,10.802 95.85,11.02 96.277,11.167L96.668,11.307C97.138,11.472 97.469,11.637 97.66,11.803C97.851,11.977 97.947,12.194 97.947,12.455C97.947,12.742 97.843,12.96 97.625,13.125C97.408,13.29 97.138,13.369 96.825,13.369C96.485,13.369 96.198,13.255 95.963,13.038C95.729,12.82 95.563,12.533 95.468,12.185L94.563,12.551C94.728,13.099 95.015,13.516 95.424,13.821C95.833,14.125 96.303,14.273 96.816,14.273Z" style="fill:white;fill-rule:nonzero;"/>
            <path d="M102.382,14.273C102.861,14.273 103.278,14.169 103.635,13.951C103.992,13.743 104.261,13.447 104.453,13.064C104.644,12.681 104.74,12.238 104.74,11.742L104.74,7.905L103.792,7.905L103.792,11.794C103.792,12.264 103.67,12.646 103.426,12.934C103.183,13.221 102.835,13.369 102.382,13.369C101.939,13.369 101.591,13.221 101.347,12.934C101.103,12.646 100.982,12.264 100.982,11.794L100.982,7.905L100.033,7.905L100.033,11.742C100.033,12.246 100.129,12.69 100.329,13.073C100.52,13.456 100.799,13.751 101.156,13.96C101.512,14.169 101.921,14.273 102.382,14.273Z" style="fill:white;fill-rule:nonzero;"/>
            <path d="M106.251,14.134L107.208,14.134L107.208,11.689L107.965,11.689L109.626,14.134L110.731,14.134L110.731,14.082L109.017,11.611L109.026,11.568C109.435,11.455 109.774,11.237 110.044,10.915C110.314,10.593 110.444,10.228 110.444,9.81C110.444,9.445 110.357,9.114 110.183,8.827C110,8.54 109.765,8.314 109.461,8.149C109.156,7.983 108.808,7.905 108.434,7.905L106.251,7.905L106.251,14.134ZM107.208,10.811L107.208,8.801L108.443,8.801C108.756,8.801 109.009,8.897 109.2,9.097C109.383,9.297 109.478,9.532 109.478,9.802C109.478,10.089 109.374,10.332 109.174,10.524C108.965,10.715 108.713,10.811 108.408,10.811L107.208,10.811Z" style="fill:white;fill-rule:nonzero;"/>
        </g>
    </g>
</svg>
