<?xml version="1.0" encoding="UTF-8" standalone="no"?>
<!DOCTYPE svg PUBLIC "-//W3C//DTD SVG 1.1//EN" "http://www.w3.org/Graphics/SVG/1.1/DTD/svg11.dtd">
<svg width="100%" height="100%" viewBox="0 0 135 40" version="1.1" xmlns="http://www.w3.org/2000/svg" xmlns:xlink="http://www.w3.org/1999/xlink" xml:space="preserve" xmlns:serif="http://www.serif.com/" style="fill-rule:evenodd;clip-rule:evenodd;stroke-miterlimit:10;">
    <g id="artwork" transform="matrix(1,0,0,1,-10.0001,-9.9999)">
        <g transform="matrix(1,0,0,1,140,9.9999)">
            <path d="M0,40L-125,40C-127.75,40 -130,37.75 -130,35L-130,5C-130,2.25 -127.75,0 -125,0L0,0C2.75,0 5,2.25 5,5L5,35C5,37.75 2.75,40 0,40" style="fill-rule:nonzero;"/>
        </g>
        <g transform="matrix(1,0,0,1,140,50.0001)">
            <path d="M0,-40L-125,-40C-127.75,-40 -130,-37.75 -130,-35L-130,-5C-130,-2.25 -127.75,0 -125,0L0,0C2.75,0 5,-2.25 5,-5L5,-35C5,-37.75 2.75,-40 0,-40M0,-39.2C2.316,-39.2 4.2,-37.316 4.2,-35L4.2,-5C4.2,-2.684 2.316,-0.8 0,-0.8L-125,-0.8C-127.316,-0.8 -129.2,-2.684 -129.2,-5L-129.2,-35C-129.2,-37.316 -127.316,-39.2 -125,-39.2L0,-39.2Z" style="fill:rgb(166,166,166);fill-rule:nonzero;"/>
        </g>
        <g transform="matrix(1,0,0,1,0,11.123)">
            <path d="M116.936,28.877L118.802,28.877L118.802,16.376L116.936,16.376L116.936,28.877ZM133.743,20.879L131.604,26.299L131.54,26.299L129.32,20.879L127.31,20.879L130.639,28.454L128.742,32.668L130.687,32.668L135.818,20.879L133.743,20.879ZM123.161,27.457C122.549,27.457 121.697,27.152 121.697,26.395C121.697,25.431 122.758,25.061 123.675,25.061C124.495,25.061 124.882,25.238 125.38,25.479C125.235,26.637 124.238,27.457 123.161,27.457M123.386,20.606C122.035,20.606 120.635,21.201 120.057,22.52L121.713,23.211C122.067,22.52 122.726,22.294 123.418,22.294C124.383,22.294 125.364,22.873 125.38,23.903L125.38,24.031C125.042,23.838 124.319,23.549 123.434,23.549C121.649,23.549 119.831,24.53 119.831,26.363C119.831,28.036 121.295,29.114 122.935,29.114C124.19,29.114 124.882,28.551 125.316,27.891L125.38,27.891L125.38,28.856L127.181,28.856L127.181,24.063C127.181,21.844 125.525,20.606 123.386,20.606M111.854,22.401L109.2,22.401L109.2,18.116L111.854,18.116C113.249,18.116 114.041,19.271 114.041,20.258C114.041,21.227 113.249,22.401 111.854,22.401M111.806,16.376L107.335,16.376L107.335,28.877L109.2,28.877L109.2,24.141L111.806,24.141C113.874,24.141 115.907,22.643 115.907,20.258C115.907,17.873 113.874,16.376 111.806,16.376M87.425,27.459C86.136,27.459 85.057,26.38 85.057,24.898C85.057,23.4 86.136,22.304 87.425,22.304C88.698,22.304 89.696,23.4 89.696,24.898C89.696,26.38 88.698,27.459 87.425,27.459M89.568,21.579L89.503,21.579C89.084,21.08 88.279,20.629 87.264,20.629C85.137,20.629 83.188,22.497 83.188,24.898C83.188,27.282 85.137,29.135 87.264,29.135C88.279,29.135 89.084,28.684 89.503,28.168L89.568,28.168L89.568,28.781C89.568,30.408 88.698,31.278 87.296,31.278C86.152,31.278 85.443,30.456 85.153,29.763L83.526,30.44C83.993,31.568 85.234,32.953 87.296,32.953C89.487,32.953 91.34,31.664 91.34,28.523L91.34,20.886L89.568,20.886L89.568,21.579ZM92.629,28.877L94.498,28.877L94.498,16.375L92.629,16.375L92.629,28.877ZM97.252,24.753C97.204,23.11 98.525,22.272 99.475,22.272C100.217,22.272 100.845,22.642 101.054,23.174L97.252,24.753ZM103.052,23.335C102.698,22.385 101.618,20.629 99.411,20.629C97.22,20.629 95.4,22.352 95.4,24.882C95.4,27.266 97.204,29.135 99.62,29.135C101.57,29.135 102.698,27.943 103.165,27.25L101.715,26.283C101.232,26.992 100.571,27.459 99.62,27.459C98.67,27.459 97.993,27.024 97.558,26.171L103.245,23.818L103.052,23.335ZM57.744,21.934L57.744,23.738L62.061,23.738C61.932,24.753 61.594,25.494 61.079,26.009C60.45,26.638 59.467,27.331 57.744,27.331C55.085,27.331 53.007,25.188 53.007,22.53C53.007,19.871 55.085,17.729 57.744,17.729C59.178,17.729 60.225,18.293 60.998,19.018L62.271,17.745C61.191,16.714 59.758,15.924 57.744,15.924C54.103,15.924 51.042,18.889 51.042,22.53C51.042,26.171 54.103,29.135 57.744,29.135C59.709,29.135 61.191,28.49 62.351,27.282C63.544,26.09 63.914,24.415 63.914,23.061C63.914,22.642 63.882,22.256 63.817,21.934L57.744,21.934ZM68.823,27.459C67.534,27.459 66.422,26.396 66.422,24.882C66.422,23.351 67.534,22.304 68.823,22.304C70.111,22.304 71.223,23.351 71.223,24.882C71.223,26.396 70.111,27.459 68.823,27.459M68.823,20.629C66.47,20.629 64.553,22.417 64.553,24.882C64.553,27.331 66.47,29.135 68.823,29.135C71.175,29.135 73.092,27.331 73.092,24.882C73.092,22.417 71.175,20.629 68.823,20.629M78.136,27.459C76.847,27.459 75.735,26.396 75.735,24.882C75.735,23.351 76.847,22.304 78.136,22.304C79.425,22.304 80.536,23.351 80.536,24.882C80.536,26.396 79.425,27.459 78.136,27.459M78.136,20.629C75.784,20.629 73.867,22.417 73.867,24.882C73.867,27.331 75.784,29.135 78.136,29.135C80.488,29.135 82.405,27.331 82.405,24.882C82.405,22.417 80.488,20.629 78.136,20.629" style="fill:white;fill-rule:nonzero;"/>
        </g>
        <g transform="matrix(1,0,0,1,30.7173,42.8611)">
            <path d="M0,-13.437L-10.647,-2.137C-10.646,-2.135 -10.646,-2.132 -10.645,-2.13C-10.318,-0.903 -9.198,0 -7.868,0C-7.336,0 -6.837,-0.144 -6.409,-0.396L-6.375,-0.416L5.609,-7.331L0,-13.437Z" style="fill:rgb(234,67,53);fill-rule:nonzero;"/>
        </g>
        <g transform="matrix(1,0,0,1,41.4882,32.5229)">
            <path d="M0,-5.023L-0.01,-5.03L-5.184,-8.029L-11.013,-2.842L-5.163,3.006L-0.017,0.037C0.885,-0.451 1.498,-1.402 1.498,-2.498C1.498,-3.588 0.894,-4.534 0,-5.023" style="fill:rgb(251,188,4);fill-rule:nonzero;"/>
        </g>
        <g transform="matrix(1,0,0,1,20.0701,40.7241)">
            <path d="M0,-21.447C-0.064,-21.211 -0.098,-20.963 -0.098,-20.707L-0.098,-0.739C-0.098,-0.483 -0.064,-0.235 0.001,0L11.013,-11.011L0,-21.447Z" style="fill:rgb(66,133,244);fill-rule:nonzero;"/>
        </g>
        <g transform="matrix(1,0,0,1,30.7959,17.1409)">
            <path d="M0,12.86L5.51,7.351L-6.46,0.411C-6.895,0.15 -7.403,0 -7.946,0C-9.276,0 -10.398,0.905 -10.725,2.133C-10.725,2.134 -10.726,2.135 -10.726,2.136L0,12.86Z" style="fill:rgb(52,168,83);fill-rule:nonzero;"/>
        </g>
        <g transform="matrix(1,0,0,1,51.2188,17)">
            <path d="M0,6L0,0L0.771,0L0.771,5.263L3.368,5.263L3.368,6L0,6Z" style="fill:white;fill-rule:nonzero;stroke:white;stroke-width:0.2px;"/>
        </g>
        <g transform="matrix(1,0,0,1,56.7578,19.3473)">
            <path d="M0,1.306L1.994,1.306L1.014,-1.401L0.98,-1.401L0,1.306ZM-1.701,3.653L0.562,-2.347L1.433,-2.347L3.695,3.653L2.841,3.653L2.263,2.027L-0.26,2.027L-0.847,3.653L-1.701,3.653Z" style="fill:white;fill-rule:nonzero;stroke:white;stroke-width:0.2px;"/>
        </g>
        <g transform="matrix(1,0,0,1,62.0947,17.7367)">
            <path d="M0,4.526L1.064,4.526C1.757,4.526 2.306,4.328 2.711,3.931C3.116,3.534 3.318,2.978 3.318,2.263C3.318,1.554 3.116,1 2.711,0.6C2.306,0.201 1.757,0.001 1.064,0.001L0,0.001L0,4.526ZM-0.77,5.263L-0.77,-0.737L1.064,-0.737C1.986,-0.737 2.724,-0.459 3.277,0.097C3.83,0.653 4.107,1.375 4.107,2.263C4.107,3.152 3.83,3.874 3.277,4.429C2.724,4.986 1.986,5.263 1.064,5.263L-0.77,5.263Z" style="fill:white;fill-rule:nonzero;stroke:white;stroke-width:0.2px;"/>
        </g>
        <g transform="matrix(1,0,0,1,68.0527,17.7367)">
            <path d="M0,4.526L1.064,4.526C1.757,4.526 2.306,4.328 2.711,3.931C3.116,3.534 3.318,2.978 3.318,2.263C3.318,1.554 3.116,1 2.711,0.6C2.306,0.201 1.757,0.001 1.064,0.001L0,0.001L0,4.526ZM-0.77,5.263L-0.77,-0.737L1.064,-0.737C1.986,-0.737 2.724,-0.459 3.277,0.097C3.83,0.653 4.107,1.375 4.107,2.263C4.107,3.152 3.83,3.874 3.277,4.429C2.724,4.986 1.986,5.263 1.064,5.263L-0.77,5.263Z" style="fill:white;fill-rule:nonzero;stroke:white;stroke-width:0.2px;"/>
        </g>
        <g transform="matrix(1,0,0,1,74.1875,19.3473)">
            <path d="M0,1.306L1.994,1.306L1.014,-1.401L0.98,-1.401L0,1.306ZM-1.701,3.653L0.562,-2.347L1.433,-2.347L3.695,3.653L2.841,3.653L2.263,2.027L-0.26,2.027L-0.847,3.653L-1.701,3.653Z" style="fill:white;fill-rule:nonzero;stroke:white;stroke-width:0.2px;"/>
        </g>
        <g transform="matrix(1,0,0,1,80.7666,17)">
            <path d="M0,6L0,0L0.939,0L3.855,4.667L3.888,4.667L3.855,3.511L3.855,0L4.626,0L4.626,6L3.821,6L0.771,1.106L0.737,1.106L0.771,2.263L0.771,6L0,6Z" style="fill:white;fill-rule:nonzero;stroke:white;stroke-width:0.2px;"/>
        </g>
        <g transform="matrix(1,0,0,1,90.2686,22.2633)">
            <path d="M0,-4.526L-2.732,-4.526L-2.732,-2.624L-0.269,-2.624L-0.269,-1.903L-2.732,-1.903L-2.732,-0.001L0,-0.001L0,0.737L-3.503,0.737L-3.503,-5.263L0,-5.263L0,-4.526Z" style="fill:white;fill-rule:nonzero;stroke:white;stroke-width:0.2px;"/>
        </g>
        <g transform="matrix(1,0,0,1,92.2461,17.7367)">
            <path d="M0,4.526L1.064,4.526C1.757,4.526 2.306,4.328 2.711,3.931C3.116,3.534 3.318,2.978 3.318,2.263C3.318,1.554 3.116,1 2.711,0.6C2.306,0.201 1.757,0.001 1.064,0.001L0,0.001L0,4.526ZM-0.771,5.263L-0.771,-0.737L1.064,-0.737C1.986,-0.737 2.724,-0.459 3.277,0.097C3.83,0.653 4.106,1.375 4.106,2.263C4.106,3.152 3.83,3.874 3.277,4.429C2.724,4.986 1.986,5.263 1.064,5.263L-0.771,5.263Z" style="fill:white;fill-rule:nonzero;stroke:white;stroke-width:0.2px;"/>
        </g>
        <g transform="matrix(1,0,0,1,100.215,20.168)">
            <path d="M0,-0.336L1.291,-0.336C1.615,-0.336 1.875,-0.444 2.07,-0.662C2.266,-0.88 2.363,-1.12 2.363,-1.383C2.363,-1.646 2.266,-1.886 2.07,-2.104C1.875,-2.322 1.615,-2.431 1.291,-2.431L0,-2.431L0,-0.336ZM0,2.832L-0.77,2.832L-0.77,-3.168L1.275,-3.168C1.782,-3.168 2.223,-2.999 2.594,-2.661C2.966,-2.323 3.151,-1.897 3.151,-1.383C3.151,-0.869 2.966,-0.443 2.594,-0.106C2.223,0.233 1.782,0.402 1.275,0.402L0,0.402L0,2.832Z" style="fill:white;fill-rule:nonzero;stroke:white;stroke-width:0.2px;"/>
        </g>
        <g transform="matrix(1,0,0,1,105.947,21.793)">
            <path d="M0,-4.793C0.09,-4.793 0.168,-4.827 0.234,-4.894C0.302,-4.961 0.335,-5.039 0.335,-5.128C0.335,-5.218 0.302,-5.296 0.234,-5.363C0.168,-5.43 0.09,-5.463 0,-5.463C-0.089,-5.463 -0.168,-5.43 -0.234,-5.363C-0.302,-5.296 -0.335,-5.218 -0.335,-5.128C-0.335,-5.039 -0.306,-4.962 -0.247,-4.898C-0.188,-4.833 -0.117,-4.799 -0.033,-4.793L0,-4.793ZM-0.997,-1.14L0.997,-1.14L0.017,-3.846L-0.017,-3.846L-0.997,-1.14ZM-2.698,1.207L-0.562,-4.458C-0.769,-4.631 -0.871,-4.855 -0.871,-5.128C-0.871,-5.374 -0.788,-5.581 -0.62,-5.748C-0.452,-5.916 -0.246,-6 0,-6C0.24,-6 0.445,-5.915 0.616,-5.744C0.786,-5.574 0.872,-5.368 0.872,-5.128C0.872,-4.86 0.769,-4.637 0.562,-4.458L2.698,1.207L1.844,1.207L1.266,-0.419L-1.257,-0.419L-1.844,1.207L-2.698,1.207Z" style="fill:white;fill-rule:nonzero;stroke:white;stroke-width:0.2px;"/>
        </g>
    </g>
</svg>
